<svg xmlns="http://www.w3.org/2000/svg" xmlns:xlink="http://www.w3.org/1999/xlink" fill-rule="evenodd" stroke-linejoin="round" stroke-miterlimit="2" clip-rule="evenodd" viewBox="0 0 269 212"><defs/><path fill="#aebecb" fill-rule="nonzero" d="M124.8 64.4L18.8 125c-2.7 1.6-4.5 4-5.5 6.6l-.7-.7v5c0 4.1 2 8.2 6.2 10.6l106 60.5a32.2 32.2 0 0015.5 4.2V60.2c-5.3 0-10.7 1.5-15.5 4.2z"/><path fill="#cdd9e1" fill-rule="nonzero" d="M268.8 130.3l-1 .3c-1-2.3-2.8-4.3-5.2-5.7l-106-60.5c-5-2.9-10.7-4.3-16.3-4.2V211c5.6.1 11.2-1.3 16.3-4.2l106-60.5c4.1-2.3 6.2-6.5 6.2-10.7v-5.3z"/><path fill="#003750" fill-rule="nonzero" d="M262.5 141.6l-106 60.5a32 32 0 01-31.7 0l-106-60.5a12.3 12.3 0 010-21.5l106-60.5a32 32 0 0131.7 0l106 60.5a12.3 12.3 0 010 21.5z"/><use width="32" height="16.9" x="119" y="64" transform="matrix(.99933 0 0 .99553 0 0)" xlink:href="#_Image1"/><use width="36" height="20.9" x="179" y="112" transform="matrix(.99933 0 0 .99553 0 0)" xlink:href="#_Image2"/><use width="36" height="20.9" x="206" y="128" transform="scale(.99933 .99553)" xlink:href="#_Image3"/><path fill="#fff" fill-rule="nonzero" d="M236.8 109.6l-22.7 13-22.7-13 22.7-13 22.7 13z"/><path fill="#bdccd5" fill-rule="nonzero" d="M224.2 119l12.6-7.1v-2.3l-22.7 13v2.3l10.1-5.8z"/><path fill="#ced6dd" fill-rule="nonzero" d="M214 124.9l-22.7-13v-2.3l22.8 13v2.3z"/><path fill="#025578" fill-rule="nonzero" d="M230.3 109.6l-16.2 9.3V75.4l16.2-9.2v43.4z"/><path fill="#024669" fill-rule="nonzero" d="M214 75.4v43.4l-16.1-9.2V66.2l16.2 9.2z"/><path fill="#50bed7" fill-rule="nonzero" d="M197.9 66.2l16.2 9.2 16.2-9.2L214 57l-16.2 9.2z"/><path fill="url(#_Linear4)" fill-rule="nonzero" d="M214 60.4h-5.9L198 66.1l9 5.2 7.2.1 9.8-5.5-9.8-5.6z"/><path fill="#78cdcd" fill-opacity=".3" fill-rule="nonzero" d="M203.3 65.8l10.8 6.1 10.8-6.1-10.8-6.2-10.8 6.2z"/><path fill="#4bb9b9" fill-rule="nonzero" d="M203.9 65.8l10.2 5.8 10.2-5.8L214 60l-10.2 5.8z"/><path fill="#c3f0f0" fill-opacity=".3" fill-rule="nonzero" d="M202.5 65.8l11.6 6.6 11.5-6.6-11.5-6.6-11.6 6.6z"/><path fill="#d4ffff" fill-rule="nonzero" d="M204.4 65.8l9.7 5.5 9.6-5.5-9.6-5.5-9.7 5.5z"/><path fill="#0f789b" fill-rule="nonzero" d="M214 69.8V71l9.9-5.5v-1.2l-9.8 5.6z"/><path fill="#024669" fill-rule="nonzero" d="M204.3 64.2l9.8 5.6 9.8-5.6-9.8-5.6-9.8 5.6z"/><path fill="#023750" fill-rule="nonzero" d="M204.3 64.2l9.8 5.6V71l-9.8-5.5v-1.2z"/><path fill="#0a1419" fill-rule="nonzero" d="M217.8 112.4l9.4-5.4v-.5l-9.4 5.4v.5zM217.8 111.2l9.4-5.4v-.5l-9.4 5.3v.6zM217.8 110l9.4-5.4v-.6l-9.4 5.4v.5zM217.8 108.7l9.4-5.4v-.5l-9.4 5.4v.5zM217.8 107.5l9.4-5.4v-.5l-9.4 5.4v.5zM217.8 106.3l9.4-5.4v-.5l-9.4 5.3v.6zM217.8 105l9.4-5.3V99l-9.4 5.4v.5zM217.8 103.8l9.4-5.4V98l-9.4 5.4v.5zM217.8 102.6l9.4-5.4v-.5l-9.4 5.4v.5zM217.8 101.4l9.4-5.4v-.5l-9.4 5.3v.6zM217.8 100.1l9.4-5.3v-.6l-9.4 5.4v.5zM217.8 99l9.4-5.5V93l-9.4 5.4v.5z"/><path fill="#003750" fill-rule="nonzero" d="M212.8 76.2l-13.9-7.8v20l13.9 7.8v-20z"/><path fill="#4bb9b9" fill-rule="nonzero" d="M208.9 78.4l.4.3v-.5l-.4-.3v.5zM208.1 78l.5.3v-.5l-.5-.3v.5zM207.4 77.6l.5.3v-.5l-.5-.3v.5zM206.7 77.2l.5.3v-.6l-.5-.2v.5zM204.6 76l.4.2v-.5l-.4-.2v.5zM203.8 75.5l.5.3v-.5l-.5-.2v.4zM203.1 75.1l.5.3V75l-.5-.3v.5zM201 74l.4.2v-.5l-.4-.3v.5zM200.2 73.5l.5.3v-.5l-.5-.3v.5zM211 80.4l.5.3v-.5l-.5-.2v.4zM210.3 80l.5.3v-.5l-.5-.3v.5zM209.6 79.6l.4.3v-.5l-.4-.3v.5zM208.9 79.2l.4.3V79l-.4-.3v.5zM206.7 78l.5.2v-.4l-.5-.3v.5zM206 77.6l.4.2v-.5l-.4-.2v.5zM204.6 76.8l.4.2v-.5l-.4-.2v.5zM203.8 76.4l.5.2v-.5l-.5-.3v.6zM202.4 75.5l.4.3v-.5l-.4-.3v.5zM201.7 75.1l.4.3v-.5l-.4-.3v.5zM209.6 80.4l.4.3v-.5l-.4-.3v.5zM208.1 79.6l.5.3v-.5l-.5-.3v.5zM207.4 79.2l.5.3V79l-.5-.3v.5zM204.6 77.6l.4.2v-.5l-.4-.2v.5zM203.8 77.2l.5.2V77l-.5-.2v.5zM203.1 76.8l.5.2v-.5l-.5-.3v.6zM202.4 76.3l.4.3v-.5l-.4-.3v.5zM201.7 76l.4.2v-.5l-.4-.3v.5zM201 75.5l.4.3v-.5l-.4-.3v.5zM200.2 75.1l.5.3v-.6l-.5-.2v.5zM208.9 107.8l.4.2v-.5l-.4-.2v.5zM208.1 107.4l.5.2v-.5l-.5-.2v.5zM207.4 107l.5.2v-.5l-.5-.2v.5zM206.7 106.6l.5.2v-.5l-.5-.3v.6zM204.6 105.3l.4.3v-.5l-.4-.3v.5zM203.8 105l.5.2v-.5l-.5-.3v.5zM203.1 104.5l.5.2v-.4l-.5-.3v.5zM201 103.3l.4.2v-.5l-.4-.2v.5zM200.2 102.9l.5.2v-.5l-.5-.2v.5zM211 85.5l.5.3v-.5l-.5-.3v.5zM210.3 85.1l.5.3v-.5l-.5-.3v.5zM209.6 84.7l.4.3v-.5l-.4-.3v.5zM206.7 83l.5.3v-.5l-.5-.2v.5zM206 82.7l.4.2v-.5l-.4-.2v.5zM204.6 81.8l.4.3v-.5l-.4-.3v.5zM203.8 81.4l.5.3v-.5l-.5-.3v.5zM202.4 80.6l.4.3v-.5l-.4-.3v.5zM201.7 80.2l.4.2V80l-.4-.3v.5zM201 79.8l.4.2v-.5l-.4-.2v.5zM208.9 85.1l.4.3v-.5l-.4-.3v.5zM208.1 84.7l.5.2v-.5l-.5-.2v.5zM207.4 84.3l.5.2V84l-.5-.2v.5zM206 83.5l.4.2v-.5l-.4-.2v.5zM205.3 83l.4.3v-.5l-.4-.3v.6zM204.6 82.7l.4.2v-.5l-.4-.3v.6zM201.7 81l.4.3v-.6l-.4-.2v.5zM201 80.6l.4.3v-.6l-.4-.2v.5zM200.2 80.2l.5.2V80l-.5-.2v.5zM209.6 86.3l.4.3V86l-.4-.3v.5zM208.9 86l.4.2v-.6l-.4-.2v.5zM208.1 85.5l.5.2v-.5l-.5-.2v.5zM207.4 85l.5.3v-.5l-.5-.2v.5zM204.6 83.5l.4.2v-.5l-.4-.2v.5zM203.8 83l.5.3v-.5l-.5-.3v.5zM202.4 82.2l.4.3V82l-.4-.3v.5zM201.7 81.8l.4.3v-.5l-.4-.3v.5zM211 91.4l.5.3v-.5l-.5-.3v.5zM210.3 91l.5.3v-.5l-.5-.3v.5zM209.6 90.6l.4.2v-.4l-.4-.3v.5zM208.9 90.2l.4.2V90l-.4-.2v.5zM208.1 89.8l.5.2v-.5l-.5-.2v.5zM207.4 89.4l.5.2v-.5l-.5-.3v.6zM205.3 88.1l.4.3v-.5l-.4-.3v.5zM203.8 87.3l.5.3V87l-.5-.3v.5zM202.4 86.5l.4.2v-.5l-.4-.2v.5zM201.7 86l.4.3v-.5l-.4-.2v.5zM200.2 85.3l.5.2V85l-.5-.2v.5zM208.9 91l.4.2v-.5l-.4-.2v.5zM208.1 90.6l.5.2v-.5l-.5-.2v.5zM207.4 90.2l.5.2V90l-.5-.2v.5zM206.7 89.8l.5.2v-.5l-.5-.3v.6zM206 89.4l.4.2v-.5l-.4-.3v.6zM205.3 89l.4.2v-.5l-.4-.3v.5zM204.6 88.5l.4.3v-.5l-.4-.3v.5zM203.1 87.7l.5.3v-.6l-.5-.2v.5zM201.7 86.9l.4.2v-.5l-.4-.2v.5zM201 86.5l.4.2v-.5l-.4-.2v.5zM200.2 86l.5.3v-.5l-.5-.2v.5zM211 93l.5.3v-.5l-.5-.3v.5zM210.3 92.6l.5.3v-.6l-.5-.2v.5zM207.4 91l.5.2v-.5l-.5-.2v.5zM206.7 90.6l.5.2v-.5l-.5-.2v.5zM205.3 89.7l.4.3v-.5l-.4-.3v.5zM204.6 89.3l.4.3V89l-.4-.3v.5zM203.1 88.5l.5.3v-.5l-.5-.3v.5zM202.4 88l.4.4v-.6l-.4-.2v.5zM209.6 98l.4.3v-.5l-.4-.2v.5zM208.9 97.7l.4.2v-.5l-.4-.2v.5zM208.1 97.2l.5.3V97l-.5-.2v.4zM206.7 96.4l.5.3v-.5l-.5-.3v.5zM206 96l.4.3v-.5l-.4-.3v.5zM205.3 95.6l.4.3v-.5l-.4-.3v.5zM203.1 94.4l.5.2v-.5l-.5-.2v.5zM202.4 94l.4.2v-.5l-.4-.2v.5zM201.7 93.6l.4.2v-.5l-.4-.2v.5zM210.3 102.8l.5.2v-.5l-.5-.3v.6zM209.6 102.4l.4.2v-.5l-.4-.3v.6zM207.4 101.1l.5.3v-.5l-.5-.3v.5zM206 100.3l.4.3v-.6l-.4-.2v.5zM205.3 99.9l.4.2v-.5l-.4-.2v.5zM204.6 99.5l.4.2v-.5l-.4-.2v.5zM202.4 98.2l.4.3V98l-.4-.2v.4zM201 97.4l.4.3v-.5l-.4-.3v.5zM210.3 103.6l.5.2v-.5l-.5-.2v.5zM209.6 103.1l.4.3v-.5l-.4-.3v.5zM208.1 102.3l.5.3v-.5l-.5-.3v.5zM207.4 102l.5.2v-.5l-.5-.3v.5zM206.7 101.5l.5.3v-.5l-.5-.3v.5zM206 101l.4.4v-.6l-.4-.2v.5zM203.8 99.9l.5.2v-.5l-.5-.2v.5zM203.1 99.4l.5.3v-.5l-.5-.2v.4zM201.7 98.6l.4.3v-.5l-.4-.3v.5zM201 98.2l.4.3V98l-.4-.3v.5zM200.2 97.8l.5.3v-.5l-.5-.3v.5zM210.3 104.3l.5.3v-.5l-.5-.2v.4zM209.6 104l.4.2v-.5l-.4-.3v.5zM208.9 103.5l.4.3v-.5l-.4-.3v.5zM208.1 103.1l.5.3v-.5l-.5-.3v.5zM206 101.9l.4.2v-.4l-.4-.3v.5zM205.3 101.5l.4.2v-.5l-.4-.2v.5zM203.8 100.7l.5.2v-.5l-.5-.2v.5zM203.1 100.3l.5.2v-.5l-.5-.3v.6zM202.4 99.9l.4.2v-.5l-.4-.3v.6zM201.7 99.4l.4.3v-.5l-.4-.3v.5z"/><path fill="#003750" fill-rule="nonzero" d="M211.6 97.1v18.3l-12.2-7V90.2l12.2 7z"/><path fill="#78cdcd" fill-rule="nonzero" d="M209.5 98.2v11l1-.6v-11l-1 .6z"/><path fill="#c3f0f0" fill-rule="nonzero" d="M199 92.3l10.5 6 1-.7-10.4-6-1 .7z"/><path fill="#41aaaa" fill-rule="nonzero" d="M199 92.3l10.5 6v11l-10.5-6v-11z"/><path fill="#003750" fill-rule="nonzero" d="M199.8 101.5l8.7 4.9v1l-8.7-4.9v-1zM199.8 99l8.7 5v1l-8.7-5v-1zM199.8 96.6l8.7 4.9v1l-8.7-4.9v-1zM199.8 94l8.7 5v1l-8.7-4.8V94z"/><use width="21" height="11" x="194" y="110" transform="matrix(.99933 0 0 .99553 0 0)" xlink:href="#_Image5"/><path fill="#fff" fill-rule="nonzero" d="M262.8 126l-22.3 12.8-22.3-12.8 22.3-12.9 22.3 12.9z"/><path fill="#bdccd5" fill-rule="nonzero" d="M250.4 135.4l12.4-7.1V126l-22.3 12.8v2.4l10-5.8z"/><path fill="#ced6dd" fill-rule="nonzero" d="M240.5 141.2l-22.3-13V126l22.3 12.8v2.4z"/><path fill="#025578" fill-rule="nonzero" d="M256.4 125.8l-15.9 9.2V92l16-9.2v43.1z"/><path fill="#024669" fill-rule="nonzero" d="M224.6 125.8l16 9.2V92l-16-9.2V87l1.3.8v.4l-1.3.7v2l1.3.8v.3l-1.3.8v2l1.3.8v.3l-1.3.8v2l1.3.7v.4l-1.3.8v25.2z"/><path fill="#003750" fill-rule="nonzero" d="M238.6 113.5v18.1l-12-6.9v-18.2l12 7z"/><path fill="#2387aa" fill-rule="nonzero" d="M244.8 105.3v2l-.6-.5v-1l.6-.5z"/><path fill="#2287a9" fill-rule="nonzero" d="M240.5 107.8l3.7-2v1l-3.7 2.2-14.6-8.4v-1.2l14.6 8.4z"/><path fill="#c3f0f0" fill-rule="nonzero" d="M226 99.8v.8l14.5 8.4 3.7-2.2.6.4-4.3 2.6-16-9.2 1.4-.8z"/><path fill="#2387aa" fill-rule="nonzero" d="M244.8 101.4v2l-.6-.4v-1.2l.6-.4z"/><path fill="#2287a9" fill-rule="nonzero" d="M240.5 104l3.7-2.2v1.2l-3.7 2.1-14.6-8.4v-1.1l14.6 8.4z"/><path fill="#c3f0f0" fill-rule="nonzero" d="M226 95.9v.8l14.5 8.4 3.7-2.1.6.4-4.3 2.5-16-9.2 1.4-.8z"/><path fill="#2387aa" fill-rule="nonzero" d="M244.8 97.6v2l-.6-.5V98l.6-.4z"/><path fill="#2287a9" fill-rule="nonzero" d="M240.5 100l3.7-2V99l-3.7 2.1-14.6-8.4v-1.1l14.6 8.4z"/><path fill="#c3f0f0" fill-rule="nonzero" d="M226 92v.8l14.5 8.4 3.7-2 .6.3-4.3 2.5-16-9.2 1.4-.8z"/><path fill="#2387aa" fill-rule="nonzero" d="M244.8 93.7v2l-.6-.5v-1.1l.6-.4z"/><path fill="#2287a9" fill-rule="nonzero" d="M240.5 96.2l3.7-2.1v1.1l-3.7 2.1L226 89v-1l14.6 8.3z"/><path fill="#c3f0f0" fill-rule="nonzero" d="M226 88.2v.7l14.5 8.4 3.7-2 .6.3-4.3 2.5-16-9.2 1.4-.7z"/><path fill="#50bed7" fill-rule="nonzero" d="M224.6 82.7l16 9.2 15.8-9.2-15.9-9.2-16 9.2z"/><path fill="url(#_Linear6)" fill-rule="nonzero" d="M240.5 76.8h-5.8l-10.1 5.9 8.9 5.1 7 .2 9.6-5.6-9.6-5.6z"/><path fill="#78cdcd" fill-opacity=".3" fill-rule="nonzero" d="M229.9 82.3l10.6 6 10.6-6-10.6-6.2-10.6 6.2z"/><path fill="#4bb9b9" fill-rule="nonzero" d="M230.5 82.3l10 5.7 10-5.7-10-5.8-10 5.8z"/><path fill="#c3f0f0" fill-opacity=".3" fill-rule="nonzero" d="M229.2 82.3l11.3 6.5 11.3-6.5-11.3-6.6-11.3 6.6z"/><path fill="#d4ffff" fill-rule="nonzero" d="M231 82.3l9.5 5.4 9.5-5.4-9.5-5.5-9.5 5.5z"/><path fill="#0f789b" fill-rule="nonzero" d="M240.5 86.3v1l9.6-5.5v-1.1l-9.6 5.6z"/><path fill="#024669" fill-rule="nonzero" d="M230.9 80.7l9.6 5.6 9.6-5.6-9.6-5.6-9.6 5.6z"/><path fill="#023750" fill-rule="nonzero" d="M230.9 80.7l9.6 5.6v1l-9.6-5.5v-1.1z"/><path fill="#0a1419" fill-rule="nonzero" d="M244.2 128.6l9.2-5.4v-.5l-9.2 5.4v.5zM244.2 127.4l9.2-5.4v-.5l-9.2 5.4v.5zM244.2 126.2l9.2-5.4v-.5l-9.2 5.3v.6zM244.2 125l9.2-5.4v-.5l-9.2 5.3v.5zM244.2 123.7l9.2-5.3v-.5l-9.2 5.3v.5zM244.2 122.5l9.2-5.3v-.6l-9.2 5.4v.5zM244.2 121.3l9.2-5.4v-.5l-9.2 5.4v.5zM244.2 120l9.2-5.3v-.5l-9.2 5.4v.5zM244.2 118.9l9.2-5.4v-.5l-9.2 5.3v.6zM244.2 117.6l9.2-5.3v-.5l-9.2 5.3v.5zM244.2 116.4l9.2-5.3v-.5l-9.2 5.3v.5zM244.2 115.2l9.2-5.4v-.5l-9.2 5.4v.5z"/><path fill="#78cdcd" fill-rule="nonzero" d="M236.4 114.6v11l1.1-.7v-11l-1 .7z"/><path fill="#c3f0f0" fill-rule="nonzero" d="M226.2 108.7l10.2 5.9 1.1-.6-10.1-5.9-1.2.6z"/><path fill="#41aaaa" fill-rule="nonzero" d="M226.2 108.7l10.2 5.9v11l-10.2-6v-10.9z"/><path fill="#003750" fill-rule="nonzero" d="M227 117.8l8.4 4.9v1L227 119v-1zM227 115.4l8.4 4.8v1l-8.4-4.7v-1zM227 113l8.4 4.8v1L227 114v-1zM227 110.5l8.4 4.9v1l-8.4-4.8v-1z"/><use width="20" height="11" x="222" y="125" transform="matrix(.99933 0 0 .99553 0 0)" xlink:href="#_Image7"/><use width="42" height="21.9" x="109" y="186" transform="matrix(.99933 0 0 .99553 0 0)" xlink:href="#_Image8"/><use width="42" height="21.9" x="132" y="174" transform="matrix(.99933 0 0 .99553 0 0)" xlink:href="#_Image9"/><use width="42" height="21.9" x="156" y="160" transform="matrix(.99933 0 0 .99553 0 0)" xlink:href="#_Image10"/><path fill="#057" fill-rule="nonzero" d="M130.5 186.6v4c0 2.5 2.5 4.7 6.3 5.7l1.2.3h.5l.4.1h.4a14 14 0 001.6.2h2.1l1-.1h.5l.4-.1.5-.1 1.2-.3.7-.2 1.1-.4.4-.2.9-.4.3-.2a7.8 7.8 0 001.3-1l.5-.5.4-.6.3-.4.2-.4v-.1-.2l.1-.1.2-1v-4c0-2.1-2-4-4.8-5.1a11.8 11.8 0 00-1.5-.6 19.2 19.2 0 00-10 0c-3.6 1-6.2 3.2-6.2 5.7z"/><path fill="#004669" fill-rule="nonzero" d="M136.8 181h.2v15.3h-.2c-3.7-1-6.3-3.2-6.3-5.7v-4c0-2.5 2.6-4.6 6.3-5.7z"/><path fill="#005f87" fill-rule="nonzero" d="M143.5 180.5l3.2.4.5.2 1 .4c2.9 1.1 4.8 3 4.8 5v4.1l-.1 1-.1.3-.3.5-.2.4-.4.6-.6.5-.2.2-1 .8-.4.2-.9.4-.4.2-1.1.4-.6.2-1.3.3h-.5l-.4.1h-.4l-.6.1v-16.3z"/><path fill="#0f779b" fill-rule="nonzero" d="M149.6 182.3c2 1.1 3.4 2.6 3.4 4.3v4l-.1 1-.1.3c0 .2-.2.4-.3.5l-.2.4-.4.6a9.2 9.2 0 01-.8.7l-1 .8-.4.2h-.1v-12.8z"/><ellipse cx="141.8" cy="186" fill="#0a1419" fill-opacity=".6" rx="11.3" ry="6.3"/><path fill="#057" fill-rule="nonzero" d="M130.5 181v4c0 2.5 2.5 4.6 6.3 5.6a16.9 16.9 0 001.7.4h.4l.4.1a13.5 13.5 0 001.6.2h2.1l1-.2h.9a71.6 71.6 0 001.7-.5l.7-.1 1.1-.5.4-.1.9-.5.3-.2a7.7 7.7 0 001.8-1.5l.4-.5.3-.4.2-.5v-.3h.1l.2-1v-4c0-2.2-2-4-4.8-5.2l-1-.4-.5-.1a19.2 19.2 0 00-10 0c-3.6 1-6.2 3.2-6.2 5.6z"/><path fill="#004669" fill-rule="nonzero" d="M136.8 175.3h.2v15.4h-.2c-3.7-1.1-6.3-3.3-6.3-5.7v-4c0-2.5 2.6-4.7 6.3-5.7z"/><path fill="#005f87" fill-rule="nonzero" d="M143.5 174.9c1.1 0 2.2.1 3.2.4l.5.1 1 .4c2.9 1.2 4.8 3 4.8 5.1v4l-.1 1-.1.4-.3.5-.2.4-.4.5-.6.6-.2.2a6 6 0 01-1 .7l-.4.2-.9.5-.4.1-1.1.5-.6.1c-.4.1-.8.3-1.3.3l-.5.1h-.4l-.4.1h-.6V175z"/><path fill="#0f779b" fill-rule="nonzero" d="M149.6 176.6c2 1.2 3.4 2.6 3.4 4.3v4l-.1 1-.1.4c0 .2-.2.3-.3.5l-.2.4-.4.5a9.2 9.2 0 01-.8.8 6 6 0 01-1 .7l-.4.2-.1.1v-12.9z"/><ellipse cx="141.8" cy="180.4" fill="#0a1419" fill-opacity=".6" rx="11.3" ry="6.3"/><path fill="#057" fill-rule="nonzero" d="M130.5 175.3v4c0 2.5 2.5 4.7 6.3 5.7a16.4 16.4 0 001.7.4h.8a13.5 13.5 0 001.6.2h2.1l1-.1h.5l.4-.1a504.1 504.1 0 002.4-.6l1.1-.4.4-.2.9-.4.3-.2c.4-.2.8-.5 1-.8.2 0 .2-.1.3-.2l.5-.5.4-.5.3-.5.2-.4v-.3l.1-.1.2-1v-4c0-2.1-2-2.5-4.8-3.6-.3-.1-.7-1.8-1-1.9l-.5-.2a19.2 19.2 0 00-10 0c-3.6 1-6.2 3.2-6.2 5.7z"/><path fill="#004669" fill-rule="nonzero" d="M136.8 169.6h.2V185h-.2c-3.7-1-6.3-3.2-6.3-5.7v-4c0-2.5 2.6-4.6 6.3-5.7z"/><path fill="#005f87" fill-rule="nonzero" d="M143.5 169.2l3.2.4.5.2c.3.1.7 1.8 1 2 2.9 1 4.8 1.4 4.8 3.5v4l-.1 1-.1.3-.3.5-.2.5-.4.5-.6.5-.2.2a6 6 0 01-1 .8l-.4.2-.9.4-.4.2-1.1.4-.6.2-1.3.3h-.5l-.4.1h-.4l-.6.1v-16.3z"/><path fill="#0f779b" fill-rule="nonzero" d="M149.6 172.5c2 1.1 3.4 1 3.4 2.8v4l-.1 1-.1.3c0 .2-.2.4-.3.5l-.2.4-.4.6a9.2 9.2 0 01-.8.7l-1 .7-.4.3h-.1v-11.3z"/><ellipse cx="141.8" cy="174.7" fill="#4fbed7" rx="11.3" ry="6.3"/><path fill="#0a1419" fill-opacity=".6" fill-rule="nonzero" d="M149 181c0 .6-.4 1.2-.8 1.5-.5.3-.9 0-.9-.5s.4-1 .9-1.4c.4-.2.8 0 .8.5z"/><path fill="#31a0a0" fill-rule="nonzero" d="M148.8 181.2c0 .4-.3.8-.6 1-.4.2-.6 0-.6-.3s.2-.8.6-1c.3-.2.6 0 .6.3z"/><path fill="#0a1419" fill-opacity=".6" fill-rule="nonzero" d="M149 186.6c0 .5-.4 1.1-.8 1.4-.5.2-.9 0-.9-.5s.4-1.1.9-1.4c.4-.2.8 0 .8.5z"/><path fill="#31a0a0" fill-rule="nonzero" d="M148.8 186.7c0 .4-.3.8-.6 1-.4.2-.6 0-.6-.3 0-.4.2-.8.6-1 .3-.2.6 0 .6.3z"/><path fill="#0a1419" fill-opacity=".6" fill-rule="nonzero" d="M149 192.2c0 .5-.4 1.1-.8 1.4-.5.2-.9 0-.9-.5s.4-1.1.9-1.4c.4-.3.8 0 .8.5z"/><path fill="#31a0a0" fill-rule="nonzero" d="M148.8 192.3c0 .4-.3.8-.6 1-.4.2-.6 0-.6-.3 0-.4.2-.8.6-1 .3-.2.6 0 .6.3z"/><path fill="#057" fill-rule="nonzero" d="M154.1 173.2v4.1c0 2.5 2.6 4.6 6.3 5.6.4.2.9.3 1.3.3l.5.1h.4l.4.1a13 13 0 001.5.2h2.2l1-.2h.8l.5-.2c.5 0 .9-.1 1.3-.3l.6-.1 1.2-.5.3-.1.9-.5.4-.2a7.8 7.8 0 001.8-1.5l.4-.5.2-.4.2-.5.1-.2v-.2c.2-.3.2-.6.2-.9v-4c0-2.2-1.9-4-4.8-5.2l-1-.3-.5-.2a19.2 19.2 0 00-9.9 0c-3.7 1-6.3 3.2-6.3 5.6z"/><path fill="#004669" fill-rule="nonzero" d="M160.4 167.6h.2V183h-.2c-3.7-1.1-6.3-3.2-6.3-5.7v-4c0-2.5 2.6-4.7 6.3-5.7z"/><path fill="#005f87" fill-rule="nonzero" d="M167.1 167.2l3.2.4.5.2c.4 0 .7.2 1 .3 3 1.2 4.8 3 4.8 5.1v4.1l-.1 1-.1.3-.3.5-.2.4-.4.5-.5.6-.3.2-1 .7-.4.2-.9.5-.3.1-1.2.5-.6.2-1.3.2-.5.1h-.3l-.5.1h-.6v-16.2z"/><path fill="#0f779b" fill-rule="nonzero" d="M173.2 169c2 1 3.4 2.5 3.4 4.2v5.1h-.1v.3h-.1l-.2.5-.3.4c0 .2-.2.4-.4.5l-.5.6-.3.2a6 6 0 01-1 .7l-.4.2-.1.1V169z"/><ellipse cx="165.5" cy="172.7" fill="#0a1419" fill-opacity=".6" rx="11.3" ry="6.3"/><path fill="#057" fill-rule="nonzero" d="M154.1 167.6v4c0 2.5 2.6 4.7 6.3 5.7a17 17 0 001.8.4h.8a13.5 13.5 0 001.5.2h2.2l1-.1h.5l.3-.1.5-.1a17.1 17.1 0 003-1h.4l.9-.5.4-.2 1-.7.3-.3.5-.5.4-.5.2-.5.2-.4.1-.3v-.1c.2-.3.2-.6.2-1v-4c0-2.1-1.9-4-4.8-5.1a11.8 11.8 0 00-1.5-.6 19.2 19.2 0 00-9.9 0c-3.7 1-6.3 3.2-6.3 5.7z"/><path fill="#004669" fill-rule="nonzero" d="M160.4 162h.2v15.3h-.2c-3.7-1-6.3-3.2-6.3-5.7v-4c0-2.5 2.6-4.6 6.3-5.6z"/><path fill="#005f87" fill-rule="nonzero" d="M167.1 161.5l3.2.4a70.3 70.3 0 001.5.6c3 1.1 4.8 3 4.8 5.1v4l-.1 1-.1.3-.3.5-.2.5-.4.5-.5.5-.3.3-1 .7-.4.2-.9.4-.3.2-1.2.4-.6.2-1.3.3h-.5l-.3.1h-.5l-.6.1v-16.3z"/><path fill="#0f779b" fill-rule="nonzero" d="M173.2 163.3c2 1.1 3.4 2.6 3.4 4.3v5h-.1v.3h-.1l-.2.5-.3.5-.4.5-.5.5-.3.3a6 6 0 01-1 .7l-.4.2h-.1v-12.8z"/><ellipse cx="165.5" cy="167" fill="#0a1419" fill-opacity=".6" rx="11.3" ry="6.3"/><path fill="#057" fill-rule="nonzero" d="M154.1 162v4c0 2.5 2.6 4.6 6.3 5.7l1.3.3h.9l.4.1a13.5 13.5 0 001.5.2h2.2l1-.2h.8l.5-.1 1.3-.3.6-.2 1.2-.5.3-.1.9-.5.4-.2a7.8 7.8 0 001.3-1l.5-.4.4-.6.2-.4.2-.4v-.1l.1-.2v-.2c.2-.3.2-.6.2-.9v-4c0-2.2-1.9-2.5-4.8-3.6-.3-.2-.6-1.8-1-2l-.5-.1a19.2 19.2 0 00-9.9 0c-3.7 1-6.3 3.1-6.3 5.6z"/><path fill="#004669" fill-rule="nonzero" d="M160.4 156.3h.2v15.4h-.2c-3.7-1-6.3-3.2-6.3-5.7v-4c0-2.6 2.6-4.7 6.3-5.7z"/><path fill="#005f87" fill-rule="nonzero" d="M167.1 155.9l3.2.4.5.2c.4 0 .7 1.7 1 1.9 3 1.1 4.8 1.4 4.8 3.5v4.1l-.1 1-.1.3-.3.5-.2.4-.4.6-.5.5-.3.2-1 .7-.4.2a8.7 8.7 0 01-1.2.6l-1.2.5-.6.2-1.3.3a83.3 83.3 0 00-.8 0l-.5.1-.6.1v-16.3z"/><path fill="#0f779b" fill-rule="nonzero" d="M173.2 159.2c2 1.1 3.4 1 3.4 2.7v5h-.1v.3l-.1.1-.2.5-.3.4c0 .2-.2.3-.4.5l-.5.6-.3.2a6 6 0 01-1 .7l-.4.2-.1.1v-11.3z"/><ellipse cx="165.5" cy="161.4" fill="#4fbed7" rx="11.3" ry="6.3"/><path fill="#0a1419" fill-opacity=".6" fill-rule="nonzero" d="M172.6 167.8c0 .5-.4 1-.8 1.4-.5.2-.9 0-.9-.5s.4-1.1.9-1.4c.4-.2.8 0 .8.5z"/><path fill="#31a0a0" fill-rule="nonzero" d="M172.4 167.9c0 .3-.3.8-.6 1-.3.2-.6 0-.6-.3 0-.4.3-.8.6-1 .3-.2.6 0 .6.3z"/><path fill="#0a1419" fill-opacity=".6" fill-rule="nonzero" d="M172.6 173.2c0 .6-.4 1.2-.8 1.4-.5.3-.9 0-.9-.4 0-.5.4-1.1.9-1.4.4-.3.8 0 .8.4z"/><path fill="#31a0a0" fill-rule="nonzero" d="M172.4 173.4c0 .3-.3.8-.6 1-.3.2-.6 0-.6-.4 0-.3.3-.8.6-1 .3-.1.6 0 .6.4z"/><path fill="#0a1419" fill-opacity=".6" fill-rule="nonzero" d="M172.6 178.8c0 .5-.4 1.2-.8 1.4-.5.3-.9 0-.9-.4 0-.5.4-1.2.9-1.4.4-.3.8 0 .8.4z"/><path fill="#31a0a0" fill-rule="nonzero" d="M172.4 179c0 .3-.3.8-.6 1-.3.2-.6 0-.6-.4 0-.3.3-.8.6-1 .3-.1.6 0 .6.4z"/><path fill="#057" fill-rule="nonzero" d="M177.7 159.9v4c0 2.5 2.5 4.7 6.3 5.7a16.9 16.9 0 001.7.4h.8a13.5 13.5 0 001.6.2h2.1l1-.1h.5l.4-.1a504.1 504.1 0 002.3-.6l1.2-.4.4-.2.8-.4.4-.2c.4-.3.8-.5 1-.8l.3-.2.5-.5.4-.6.3-.4.2-.4v-.1-.2l.1-.1.1-1v-4c0-2.1-1.8-4-4.7-5.1a11.8 11.8 0 00-1.6-.6 19.2 19.2 0 00-9.9 0c-3.7 1-6.2 3.2-6.2 5.7z"/><path fill="#004669" fill-rule="nonzero" d="M184 154.2h.2v15.4h-.2c-3.8-1-6.3-3.2-6.3-5.7v-4c0-2.5 2.5-4.6 6.3-5.7z"/><path fill="#005f87" fill-rule="nonzero" d="M190.6 153.8l3.2.4a282.8 282.8 0 001.6.5c2.9 1.2 4.7 3 4.7 5.2v5h-.1v.3h-.1l-.2.5-.3.4c0 .2-.2.4-.4.6l-.5.5-.2.2-1.1.7-.4.3-.8.4-.4.1-1.2.5-.6.2a16.5 16.5 0 01-2.1.4h-.4l-.7.1v-16.3z"/><path fill="#0f779b" fill-rule="nonzero" d="M196.7 155.6c2 1 3.5 2.5 3.5 4.3v4l-.1 1-.2.3-.2.5-.2.4-.5.6-.5.5-.2.2a6 6 0 01-1 .7 2.5 2.5 0 01-.6.3v-12.8z"/><ellipse cx="189" cy="159.3" fill="#0a1419" fill-opacity=".6" rx="11.3" ry="6.3"/><path fill="#057" fill-rule="nonzero" d="M177.7 154.2v4c0 2.5 2.5 4.7 6.3 5.7l1.2.3h.5l.4.1.4.1a13 13 0 001.6.1h2.1l1-.1h.5l.4-.1h.5l1.2-.4.6-.2 1.2-.4.4-.2.8-.4.4-.2a7.8 7.8 0 001.8-1.5l.4-.5.3-.5.2-.4v-.3l.1-.1.1-1v-4c0-2.1-1.8-4-4.7-5.1l-1-.4-.6-.1a19.2 19.2 0 00-9.9 0c-3.7 1-6.2 3.1-6.2 5.6z"/><path fill="#004669" fill-rule="nonzero" d="M184 148.6h.2v15.3h-.2c-3.8-1-6.3-3.2-6.3-5.7v-4c0-2.5 2.5-4.6 6.3-5.6z"/><path fill="#005f87" fill-rule="nonzero" d="M190.6 148.2c1.2 0 2.3.1 3.2.4l.5.1 1 .4c3 1.1 4.8 3 4.8 5.1v5h-.1v.3h-.1l-.2.5-.3.5c0 .2-.2.3-.4.5l-.5.5-.2.3-1.1.7-.4.2a8.6 8.6 0 01-1.2.6l-1.2.4-.6.2-1.2.3h-.5l-.4.1-.4.1h-.7v-16.2z"/><path fill="#0f779b" fill-rule="nonzero" d="M196.7 149.9c2 1.1 3.5 2.6 3.5 4.3v4l-.1 1-.2.3-.2.5-.2.5-.5.5-.5.5-.2.3a6 6 0 01-1 .7l-.4.2h-.2V150z"/><ellipse cx="189" cy="153.6" fill="#0a1419" fill-opacity=".6" rx="11.3" ry="6.3"/><path fill="#057" fill-rule="nonzero" d="M177.7 148.6v4c0 2.5 2.5 4.6 6.3 5.7a16.9 16.9 0 001.7.3l.4.1h.4a13.5 13.5 0 001.6.2h2.1l1-.2h.9a504.1 504.1 0 002.3-.6l1.2-.5.4-.1.8-.4.4-.3c.4-.2.8-.4 1-.7l.3-.2.5-.5.4-.6.3-.4.2-.4v-.1-.2l.1-.2.1-.9v-4c0-2.2-1.8-2.5-4.7-3.6-.4-.2-.7-1.8-1-2h-.6a19.2 19.2 0 00-9.9 0c-3.7 1-6.2 3-6.2 5.6z"/><path fill="#004669" fill-rule="nonzero" d="M184 143l.2-.1v15.4h-.2c-3.8-1-6.3-3.2-6.3-5.7v-4c0-2.5 2.5-4.7 6.3-5.7z"/><path fill="#005f87" fill-rule="nonzero" d="M190.6 142.5l3.2.4.5.2c.4 0 .7 1.7 1 1.9 3 1.1 4.8 1.4 4.8 3.6v5h-.1v.3h-.1l-.2.5-.3.4c0 .2-.2.4-.4.6l-.5.5-.2.2-1.1.7-.4.3-.8.4-.4.1-1.2.5-.6.2a17 17 0 01-2.1.4h-.4l-.7.1v-16.3z"/><path fill="#0f779b" fill-rule="nonzero" d="M196.7 145.8c2 1.1 3.5 1 3.5 2.8v4l-.1 1-.2.3-.2.5-.2.4-.5.6-.5.5-.2.2a6 6 0 01-1 .7l-.4.3h-.2v-11.3z"/><ellipse cx="189" cy="148" fill="#4fbed7" rx="11.3" ry="6.3"/><path fill="#0a1419" fill-opacity=".6" fill-rule="nonzero" d="M196.2 154.4c0 .5-.4 1.1-.9 1.4-.4.2-.8 0-.8-.5s.4-1.1.8-1.4c.5-.2.9 0 .9.5z"/><path fill="#31a0a0" fill-rule="nonzero" d="M196 154.5c0 .4-.4.8-.7 1-.3.2-.6 0-.6-.3 0-.4.3-.8.6-1 .3-.2.6 0 .6.3z"/><path fill="#0a1419" fill-opacity=".6" fill-rule="nonzero" d="M196.2 159.9c0 .5-.4 1-.9 1.4-.4.2-.8 0-.8-.5s.4-1.1.8-1.4c.5-.2.9 0 .9.5z"/><path fill="#31a0a0" fill-rule="nonzero" d="M196 160c0 .3-.4.8-.7 1-.3.2-.6 0-.6-.3 0-.4.3-.8.6-1 .3-.2.6 0 .6.3z"/><path fill="#0a1419" fill-opacity=".6" fill-rule="nonzero" d="M196.2 165.4c0 .6-.4 1.2-.9 1.4-.4.3-.8.1-.8-.4s.4-1.1.8-1.4c.5-.3.9 0 .9.4z"/><path fill="#31a0a0" fill-rule="nonzero" d="M196 165.6c0 .3-.4.8-.7 1-.3.2-.6 0-.6-.3 0-.4.3-.9.6-1 .3-.2.6 0 .6.3z"/><use width="20" height="11.9" x="14" y="131" transform="matrix(.99933 0 0 .99553 0 0)" xlink:href="#_Image11"/><use width="22" height="11.9" x="46" y="148" transform="matrix(.99933 0 0 .99553 0 0)" xlink:href="#_Image12"/><path fill="#a9e6f5" fill-rule="nonzero" d="M31.2 126.5c1.4 0 2.5.3 3.4.8.8.5 1.4 1.2 1.4 2 0 .7-.5 1.4-1.4 1.9a7 7 0 01-3.4.8 7 7 0 01-3.3-.8c-.9-.5-1.4-1.2-1.4-2 0-.7.5-1.4 1.4-2a7 7 0 013.3-.7z"/><path fill="#7dd2e6" fill-rule="nonzero" d="M26.5 129.2c0 .8.5 1.5 1.4 2 .8.5 2 .8 3.3.8 1.4 0 2.5-.3 3.4-.8.8-.5 1.4-1.2 1.4-2v3c0 .7-.5 1.4-1.4 2a7 7 0 01-3.4.8 7 7 0 01-3.3-.9c-.9-.5-1.4-1.2-1.4-1.9v-3z"/><path fill="#2287a9" fill-rule="nonzero" d="M30 58.4c-.4-.4-.6-1-.6-1.4l-1.8 72c0 .6.4 1.2 1 1.6a5 5 0 002.7.6V59c-.6 0-1-.3-1.3-.6z"/><path fill="#cdd9e1" fill-rule="nonzero" d="M33 57v.4-.4zM33 57.4h-1.2l-.6 1.6c.5 0 1-.3 1.3-.6.2-.3.4-.7.4-1z"/><path fill="#42aac8" fill-rule="nonzero" d="M35 129l-2-71.6-.5 1c-.3.3-.8.6-1.3.6v72.2c1 0 2-.2 2.7-.6.6-.4 1-1 1-1.6z"/><path fill="#a9e6f5" fill-rule="nonzero" d="M30.8 58.4l11.6-6.8c1-.5 3-.8 3.7-.3.3.3.4.5.3 1-.7 1.8-2.1 4-4.2 5.3l-11.4 6.7v-5.9z"/><path fill="#50bed7" fill-rule="nonzero" d="M24.6 60.7l6.2 3.6v-5.9l-6.2-3.6v5.9z"/><path fill="#7dd2e6" fill-rule="nonzero" d="M40 47.7c-.8-.5-2.9-.2-3.8.4l-11.6 6.7 6.1 3.6 11.7-6.7c.9-.6 3-1 3.7-.3L40 47.7z"/><path fill="#0f789b" fill-rule="nonzero" d="M29 62.5c-1.9-1-3.3-3.1-3.3-4.7s1.5-2.1 3.3-1.1c1.8 1 3.2 3 3.1 4.7 0 1.6-1.4 2.1-3.2 1.1z"/><path fill="#42aac8" fill-rule="nonzero" d="M26.4 58.2l-1.4-.5-23.1-4.2c-.8-.2-2.2-.2-1.8.7 0 .4.9.8 1.5 1.1l20.1 7s1.2.4 1.8.1c1-.5 3-1.9 3.6-2.5l-.7-1.7zM30.6 62.5c.2.6 1.4 1 1.8 1.5l18.9 24c.7.9 1.6 2 2 1.6.3-.2.3-.8-.1-1.5l-13.3-21s-.8-1.2-1.8-2c-1.4-.8-4.9-3-6-3.5l-1.5 1z"/><path fill="#025f86" fill-rule="nonzero" d="M24.9 59.1l-1.5-.5-21.8-5c-.8-.1-1.8-.3-1.5.6 0 .4.6 1 1.3 1.3l18.8 7.7s1.1.4 1.8.1c.9-.5 3-2 3.5-2.5L25 59zM29.8 63.3c.2.6.6 1.2 1 1.6L51 88.2c.7.8 1.7 2 2.1 1.6.3-.2.3-.8-.2-1.5L38.4 68s-.8-1.2-1.8-2l-6-3.4-.8.7z"/><path fill="#42aac8" fill-rule="nonzero" d="M29.8 57.2c.1-.3.4-.9.4-1.3l.1-21.2c0-.8 0-1.8-.8-2.3-.4-.2-.9-.2-1.1.3l-3.3 15.2s-.3.8.1 2c.7 1.5 2.5 7 3.2 8.1l1.4-.8z"/><path fill="#025f86" fill-rule="nonzero" d="M28.4 58c.2-.3.3-.8.3-1.2l1.4-22c0-.8 0-1.8-.9-2.3-.3-.2-.8-.2-1 .3l-4.6 16s-.3.8.1 2l3.2 6.4 1.5.8z"/><path fill="#025578" fill-rule="nonzero" d="M27.5 63.3c-1.8-1-3.2-3.2-3.1-4.8 0-1.6 1.5-2 3.2-1 1.8 1 3.2 3 3.2 4.7 0 1.6-1.5 2-3.3 1z"/><path fill="#025578" fill-rule="nonzero" d="M24.8 57.4s-2.5 2.4-.7 5.6c1.8 3.2 6 .6 6 .6l-5.3-6.2z"/><path fill="#a9e6f5" fill-rule="nonzero" d="M65.5 144.2c1 0 1.8.2 2.4.6.7.4 1 .9 1 1.4 0 .6-.3 1.1-1 1.5a5 5 0 01-2.5.6c-.9 0-1.8-.3-2.4-.6-.7-.4-1-1-1-1.5s.3-1 1-1.4c.6-.4 1.5-.6 2.5-.6z"/><path fill="#7dd2e6" fill-rule="nonzero" d="M62 146.2c0 .6.3 1.1 1 1.5a5 5 0 002.5.6c1 0 1.8-.3 2.4-.6.7-.4 1-1 1-1.5v2.2c0 .6-.3 1-1 1.5a5 5 0 01-2.5.6c-.9 0-1.8-.3-2.4-.6-.7-.4-1-1-1-1.5v-2.2z"/><path fill="#2287a9" fill-rule="nonzero" d="M64.5 93.8c-.2-.3-.4-.6-.4-1L62.7 146c0 .4.3.8.8 1.1.5.3 1.2.5 2 .5l-.1-53.5c-.3 0-.7-.1-.9-.4z"/><path fill="#cdd9e1" fill-rule="nonzero" d="M66.8 92.8l-.1.3v-.3zM66.7 93h-.9l-.4 1.2c.4 0 .7-.1 1-.4l.3-.7z"/><path fill="#42aac8" fill-rule="nonzero" d="M68.2 146.1l-1.5-53c0 .3-.2.5-.3.7-.3.3-.6.4-1 .4v53.5c.8 0 1.5-.2 2-.5s.8-.6.8-1.1z"/><path fill="#a9e6f5" fill-rule="nonzero" d="M65.1 93.8l8.6-5c.7-.4 2.2-.6 2.8-.2.2.2.2.4.1.8-.4 1.3-1.5 3-3 3.9L65 98.2v-4.4z"/><path fill="#50bed7" fill-rule="nonzero" d="M60.5 95.5l4.6 2.7v-4.4l-4.6-2.6v4.3z"/><path fill="#7dd2e6" fill-rule="nonzero" d="M71.9 86c-.6-.5-2.1-.2-2.8.2l-8.6 5 4.6 2.6 8.6-5c.7-.4 2.2-.6 2.8-.2L71.9 86z"/><path fill="#0f789b" fill-rule="nonzero" d="M63.7 96.9c-1.3-.8-2.3-2.3-2.3-3.5 0-1.2 1-1.6 2.4-.8 1.3.7 2.3 2.3 2.3 3.5 0 1.2-1 1.5-2.4.8z"/><path fill="#42aac8" fill-rule="nonzero" d="M61.9 93.7l-1-.4-17.2-3.1c-.6-.1-1.5-.1-1.3.6.1.3.7.6 1.2.8l14.8 5.1s.9.3 1.4.1c.6-.3 2.2-1.4 2.6-1.8l-.5-1.3zM65 97c.2.3 1 .7 1.3 1l14 17.8c.5.6 1.2 1.4 1.5 1 .2 0 .2-.5-.1-1l-9.8-15.5s-.6-.9-1.4-1.4l-4.4-2.7-1.2.7z"/><path fill="#025f86" fill-rule="nonzero" d="M60.8 94.4c-.4-.2-.8-.4-1.1-.4l-16.2-3.7c-.6-.1-1.4-.2-1.1.4 0 .3.5.8 1 1l13.9 5.7s.8.3 1.3 0c.6-.3 2.2-1.4 2.6-1.8l-.4-1.2zM64.4 97.5l.7 1.1 15 17.3c.5.6 1.2 1.4 1.5 1.1.2-.1.2-.5-.1-1l-10.8-15s-.6-1-1.3-1.5a78 78 0 00-4.5-2.6l-.5.6z"/><path fill="#42aac8" fill-rule="nonzero" d="M64.4 93l.3-1V76.3c0-.6 0-1.4-.6-1.7-.3-.2-.6-.1-.8.2l-2.4 11.3s-.2.6 0 1.4c.6 1.1 1.9 5.2 2.4 6l1-.5z"/><path fill="#025f86" fill-rule="nonzero" d="M63.4 93.5l.2-.8 1-16.3c0-.5 0-1.3-.6-1.7-.3-.1-.7-.1-.8.2l-3.5 11.8s-.2.7.2 1.5l2.3 4.8 1.2.5z"/><path fill="#b5bac4" fill-rule="nonzero" d="M62.7 97.4c-1.3-.7-2.4-2.3-2.3-3.5 0-1.2 1-1.5 2.4-.8 1.3.8 2.3 2.4 2.3 3.5 0 1.2-1.1 1.6-2.4.8z"/><path fill="#025578" fill-rule="nonzero" d="M60.7 93s-1.9 1.8-.6 4.2c1.4 2.4 4.4.5 4.4.5l-3.8-4.6z"/><use width="91.9" height="49.8" x="64" y="117" transform="matrix(.99933 0 0 .99553 0 0)" xlink:href="#_Image13"/><path fill="#024669" fill-rule="nonzero" d="M163.1 126.2V124h-56.7v2.3c0 4.2 2.7 8.4 8.3 11.5 11 6.4 29 6.4 40 0 5.6-3.1 8.4-7.3 8.4-11.5z"/><path fill="#0f789b" fill-rule="nonzero" d="M154.8 112.4c11 6.3 11 16.6 0 23-11 6.4-29 6.4-40.1 0-11.1-6.4-11.1-16.7 0-23 11-6.4 29-6.4 40 0z"/><path fill="#898d9e" fill-rule="nonzero" d="M138.7 139l-1.4-.2-.3-.8v-.7l2.7.5v.6l-1 .6z"/><path fill="#788791" fill-rule="nonzero" d="M138.7 138.4l-1.4-.3-.3-.8 1-.5 1.4.2.3.8-1 .6z"/><path fill="#999db0" fill-rule="nonzero" d="M138.7 139l-1.4-.2v-.6l1.4.2v.6z"/><path fill="#898d9e" fill-rule="nonzero" d="M154.7 134.3l-1.4-.2-.4-.8v-.7l2.8.5v.6l-1 .6z"/><path fill="#788791" fill-rule="nonzero" d="M154.7 133.7l-1.4-.3-.4-.8 1-.5 1.4.2.4.8-1 .6z"/><path fill="#999db0" fill-rule="nonzero" d="M154.7 134.3l-1.4-.2v-.7l1.4.3v.6z"/><path fill="#898d9e" fill-rule="nonzero" d="M161.5 124.9l-1.4-.2-.3-.8v-.7l2.7.4v.7l-1 .6z"/><path fill="#788791" fill-rule="nonzero" d="M161.5 124.2l-1.4-.2-.3-.8 1-.6 1.4.2.3.8-1 .6z"/><path fill="#999db0" fill-rule="nonzero" d="M161.5 124.9l-1.4-.2v-.7l1.4.2v.7z"/><path fill="#898d9e" fill-rule="nonzero" d="M109.4 121.5l-1.4-.2-.4-.8v-.7l2.8.4v.7l-1 .6z"/><path fill="#788791" fill-rule="nonzero" d="M109.4 120.8l-1.4-.2-.4-.8 1-.6 1.4.2.4.8-1 .6z"/><path fill="#999db0" fill-rule="nonzero" d="M109.4 121.5l-1.4-.2v-.7l1.4.2v.7z"/><path fill="#898d9e" fill-rule="nonzero" d="M112.4 132l-1.4-.1-.3-.8v-.7l2.7.4v.7l-1 .6z"/><path fill="#788791" fill-rule="nonzero" d="M112.4 131.4l-1.4-.2-.3-.8 1-.6 1.3.2.4.8-1 .6z"/><path fill="#999db0" fill-rule="nonzero" d="M112.4 132l-1.4-.1v-.7l1.4.2v.7z"/><path fill="#898d9e" fill-rule="nonzero" d="M123.5 137.8l-1.4-.2-.4-.8v-.7l2.8.4v.7l-1 .6z"/><path fill="#788791" fill-rule="nonzero" d="M123.5 137.1l-1.4-.2-.4-.8 1-.6 1.4.2.4.8-1 .6z"/><path fill="#999db0" fill-rule="nonzero" d="M123.5 137.8l-1.4-.2v-.7l1.4.2v.7z"/><path fill="#024669" fill-rule="nonzero" d="M159.5 122.3v-21.2H110v21.2c0 3.7 2.4 7.3 7.2 10a39 39 0 0035 0c4.9-2.7 7.3-6.3 7.3-10z"/><path fill="#0f789b" fill-rule="nonzero" d="M152.2 91c9.7 5.6 9.7 14.6 0 20.2a39 39 0 01-35 0c-9.7-5.6-9.7-14.6 0-20.2a39 39 0 0135 0z"/><path fill="#a5e1e0" fill-rule="nonzero" d="M144.5 65.2c.9-4.6-1.3-10.1-8.2-12.8 0 0-8.1-2.1-12.6-3.6-18.2-6.2-21-19.3-30.5-14.6 0 0-3.5 2.7-3.5 3.3.4 6.7 24.3 17.4 33.5 22.2 3.6 1.8 8.3 12.2 8.3 12.2 5.4 2.6 11.5-.4 13-6.5v-.2z"/><clipPath id="a"><path d="M141 67.7c.9-4.6-1.3-10.2-8.2-12.9 0 0-8.2-1.9-12.6-3.6C106.2 45.8 98 31 90 37c0 0-4.6 5.4-.3 11 2.6 3.3 8.5 5.9 15.5 9 4 2 8 4.2 11.3 6 3.5 1.8 13.2 8.5 13.2 8.5 5.4 2.6 10.5 1 11.3-3.6v-.2z" clip-rule="nonzero"/></clipPath><g clip-path="url(#a)"><path fill="#004b55" d="M84.1 31.8H145v44.6H84.1z"/></g><path fill="#a5e1e0" fill-rule="nonzero" d="M169 3.2c0-.2-.2-.4-.3-.5a8 8 0 00-1.3-1.6c-1-.9-2.5-1.4-4.5-1l-58 26.3c-.3 0-.6.2-.8.4l-5.6 4.1.7-.4 58-26.2c2-.4 3.5 0 4.5 1a6.6 6.6 0 011.7 2c1 1.8 2.3 4.4 0 6.1l5.6-4.1c2.4-1.7 1.1-4.4 0-6.1z"/><path fill="#41aaaa" fill-rule="nonzero" d="M99.2 30.6l58-26.2c3.3-.9 5.1 1.2 6.2 2.9 1 1.8 2.4 4.4 0 6.1l-55 30.3c-3 1.2-7.3.8-10.6-3.4-3.4-4.5-1.6-8.5 1.4-9.7z"/><path fill="#b6b7b8" fill-rule="nonzero" d="M158.4 8l.8-1c-.7-.1-1.2 0-1.5.4l-.7 1c.2-.4.7-.5 1.4-.4z"/><path fill="#b6b7b8" fill-rule="nonzero" d="M161.3 12l.8-1c.3-.3.4-.8.2-1.3a4.5 4.5 0 00-3.1-2.7l-.8 1c1.3.3 2.7 1.4 3 2.7.3.6.2 1 0 1.4z"/><path fill="#788791" fill-rule="nonzero" d="M158.4 8c-1.3-.2-2 .6-1.6 1.8a4.5 4.5 0 003.1 2.6c1.3.3 2-.5 1.6-1.7a4.5 4.5 0 00-3.1-2.7z"/><path fill="#a5e1e0" fill-rule="nonzero" d="M158.9 6.6c-.8-.4-1.8-.4-2.9.3-1.8 1.1-3 3-3 5.6 0 1.3.4 2.2 1.1 2.6l9.7 6.6c-.7-.5-1.2-1.4-1.2-2.6 0-2.6 1.8-5.7 4-7 1.2-.7 2.2-.7 3-.3l-10.7-5.2z"/><path fill="#4b728b" fill-rule="nonzero" d="M166.6 12c2.3-1.2 4.1-.2 4.1 2.4 0 2.5-1.8 5.7-4 7-2.3 1.2-4 .2-4.1-2.3 0-2.6 1.8-5.7 4-7z"/><path fill="#023750" fill-opacity=".3" fill-rule="nonzero" d="M162.6 19v-.6-.2l.2-.7.2-.8.4-.8-10-5.9c-.3.7-.5 1.6-.5 2.5 0 1.3.5 2.2 1.2 2.6l9.7 6.6c-.8-.5-1.2-1.4-1.2-2.6z"/><path fill="#b6b7b8" fill-rule="nonzero" d="M84.1 40.5l5.7-4.2.7-.4-5.7 4.2-.7.4z"/><path fill="#a5e1e0" fill-rule="nonzero" d="M154.7 12.7l-.3-.5a8 8 0 00-1.4-1.6c-1-.8-2.4-1.4-4.4-.9L90.6 36 84.8 40l58-26.2c2-.5 3.5.1 4.5 1 .5.4 1 1 1.3 1.5l.3.5c1.1 1.8 2.4 4.5 0 6.1l5.7-4.1c2.3-1.7 1-4.4 0-6.1z"/><path fill="#41aaaa" fill-rule="nonzero" d="M84.8 40L143 13.8c3.2-.8 5 1.3 6.1 3 1.1 1.8 2.4 4.4 0 6.1L94 53.2c-3 1.2-7.3.8-10.5-3.5-3.5-4.4-1.7-8.4 1.3-9.7z"/><path fill="#a5e1e0" fill-rule="nonzero" d="M136.2 72c.9-4.6-1.3-10.2-8.2-12.9 0 0-8.1-2-12.6-3.6C97.2 49.4 94.4 36.3 85 41c0 0-3.5 2.3-3.5 3.3 0 6.8 24.3 17.5 33.5 22.2 3.5 1.9 8.3 12.3 8.3 12.3 5.4 2.6 11.5-.5 13-6.6V72z"/><clipPath id="b"><path d="M132.7 74.4c1-4.5-1.3-10.1-8.2-12.8 0 0-8.2-1.9-12.6-3.6-14-5.5-22.2-20.2-30.2-14.3 0 0-4.6 5.5-.3 11 2.7 3.4 8.5 6 15.5 9.2 4 1.7 8 4 11.3 5.8a211 211 0 0113.2 8.6c5.4 2.5 10.5.9 11.3-3.7v-.2z" clip-rule="nonzero"/></clipPath><g clip-path="url(#b)"><path fill="#004b55" d="M75.8 38.6h60.9v44.6H75.8z"/></g><path fill="#023750" fill-rule="nonzero" d="M157.4 97.6v2.8c0 3.4-2.3 6.7-6.6 9.2a35.5 35.5 0 01-32.1 0c-4.5-2.6-6.7-6-6.7-9.3v-2.8c0 3.4 2.3 6.7 6.8 9.3a35.5 35.5 0 0032 0c4.4-2.5 6.6-5.9 6.6-9.2z"/><path fill="#024669" fill-rule="nonzero" d="M150.7 88.3c9 5.1 9 13.4.1 18.5a35.5 35.5 0 01-32 0c-9-5.1-9-13.4-.1-18.5a35.5 35.5 0 0132 0z"/><path fill="#a5e1e0" fill-rule="nonzero" d="M114.8 89.5l10-5.8c.2-.1.6-.2 1 0 1.2.4 1.6.4 2.5-.2l-10 5.9c-1 .5-1.4.5-2.5.1h-1z"/><path fill="#a5e1e0" fill-rule="nonzero" d="M153.6 78.8c2.2-1.3 3.6-4 3.6-8 0-3-.8-6.3-2.1-9.5-1.3-2.7-3-5.4-5-7.6a21.8 21.8 0 00-5.5-4.7c-3.5-2-4.8-2.1-8-1.4 0 0-4.2.6-10.1 3.4-6.9 3.1-10 6.7-10 6.7 2.3-1.3 5.5-1.1 9 1a23 23 0 015.6 4.5c2 2.3 3.6 5 4.8 7.7 1.4 3.1 2.3 6.4 2.2 9.4 0 2.8-.7 5-1.8 6.5l-4.5 2.6a1 1 0 00-.5.6c-.3 1 0 3.8 0 4 0 .8.2 1.8.6 2.9l.5.9 1 1.4 1.1 1.1.6.6h.1l.4.7c.4.8.3 5 .3 5s6.2 3.8 14.8-1.5c4.5-2.8 4.5-8.4 4.5-8.4s.5-2.7-.5-4.7l-.4-.6c-.2-.2-3.6-3.6-4-7v-3.7l3.3-1.9z"/><path fill="#03737d" fill-rule="nonzero" d="M125.5 58.6c7 4 12.7 13.7 12.7 21.7 0 4.8-2.1 7.9-5.3 8.7-.5.1-1.4.2-1.6 1-.3.9 0 3.8 0 3.9 0 1.1.3 2.5 1.1 3.8.8 1.3 1 1.5 2.1 2.5l.6.6c1 1 .8 5.6.8 5.7l-21.5-12.3c0-.1-.3-5.3 1.4-4.7 1.1.4 1.6.4 2.5-.2.8-.5 1.3-1.6 1.3-2.9 0-.1.3-2.1-.1-3.2-.3-.8-1-2-1.5-2.7-3.2-4.5-5.2-10-5.2-14.7 0-8 5.7-11.2 12.7-7.2z"/><path fill="#004b55" fill-rule="nonzero" d="M132.4 53A12 12 0 00126 51l-1.7.8-.5.3c2.3-.9 5.2-.4 8.2 1.4A29.2 29.2 0 01145 76.4c0 4.7-2.7 8.8-5.9 9.6l2-.6c1.8-.8 4.6-4 4.6-9 0-8.6-6-19.1-13.2-23.4z"/><path fill="#004b55" fill-rule="nonzero" d="M135.8 51.3c-2-1.2-3.9-1.8-5.7-1.9l-2.8 1.2c2.3-1 5.2-.5 8.2 1.3a28.6 28.6 0 0112.8 22.4c0 4.7-3.2 9.2-5.6 9.9l1.6-.5c2-.7 4.7-4.4 4.7-9.4 0-8.4-5.8-18.8-13.2-23z"/><path fill="#004b55" fill-rule="nonzero" d="M148.7 81.4l-9.5 4.7s-2.6 1.8-2.3 4c.2 1.4.9 2.2.9 2.2s2.1-3.8 6-4.4c3.8-.6 6.3.7 6.3.7s-1.1-1-1.8-3.1c-.5-2 .4-4.1.4-4.1z"/><path fill="#4bb9b9" fill-rule="nonzero" d="M149 100.8c-8 3.1-15.7-1.7-15.7-1.7l1.2 1.2.6.6h.1l.4.7c.4.8.3 4.9.3 5 0 0 6.2 3.8 14.8-1.5 4.5-2.8 4.5-8.4 4.5-8.4s.5-2.7-.5-4.7l-.4-.6s2 6.6-5.3 9.4z"/><g opacity=".3"><clipPath id="c"><path d="M123.8 63.6c-4.7-2.7-8.5-.6-8.5 4.8 0 5.4 3.7 11.9 8.4 14.6 4.7 2.7 8.6.5 8.6-4.8 0-5.4-3.8-12-8.5-14.6z" clip-rule="nonzero"/></clipPath><g clip-path="url(#c)"><path fill="#a5e1e0" d="M114.5 62h18v23.3h-18z"/></g></g><path fill="#fff" fill-rule="nonzero" d="M122.8 71l-.8.4c.3-.1.7 0 1 .1l.9-.5c-.4-.2-.8-.3-1.1 0z"/><path fill="#848c91" fill-rule="nonzero" d="M122.8 71c.3-.3.7-.2 1 0 1 .5 1.6 1.7 1.6 2.6 0 .5-.2.8-.5 1l-.8.5c.3-.1.5-.4.5-1 0-.9-.7-2-1.6-2.5-.4-.3-.8-.3-1-.2l.8-.5z"/><path fill="#d4d7da" fill-rule="nonzero" d="M123.1 71.5c-.8-.4-1.5 0-1.5.9 0 1 .6 2.1 1.5 2.6.8.5 1.5.1 1.5-.8 0-1-.7-2.2-1.5-2.7z"/><path fill="#b6b7b8" fill-rule="nonzero" d="M144 16.9l1-.8c-.6-.3-1.1-.3-1.4 0l-1 .7c.3-.2.8-.2 1.4.1zM145.7 21.6l1-.7c.3-.3.6-.7.5-1.4 0-1.3-1-2.8-2.2-3.4l-1 .8c1.1.6 2.1 2.1 2.2 3.4 0 .6-.2 1-.5 1.3z"/><path fill="#788791" fill-rule="nonzero" d="M144 16.9c-1.2-.6-2 0-2 1.3s1 2.8 2.2 3.4c1.2.6 2 0 2-1.3s-1-2.8-2.2-3.4z"/><path fill="#dfe6ed" fill-rule="nonzero" d="M170.4 10.7c-.8-.5-2-.5-3.5.2-2.7 1.4-5.1 5-5.3 8.1 0 1.5.4 2.6 1.3 3.2l2.4 1.8c-.8-.5-1.3-1.6-1.2-3.1.1-3.1 2.5-6.8 5.3-8.2 1.4-.7 2.6-.7 3.5-.1l-2.5-1.9z"/><path fill="#fff" fill-rule="nonzero" d="M169.4 12.7c2.8-1.4 4.9 0 4.7 3-.1 3.1-2.5 6.8-5.3 8.2-2.7 1.4-4.9 0-4.7-3 .2-3.1 2.5-6.8 5.3-8.2z"/><path fill="#9bafbd" fill-rule="nonzero" d="M175.4 23.5c0 .4-.6 2.6 3.4 6.1 3.6 3 13.4 9.2 16.2 9.1l2.4-2.2c.5-.3 1.7.8 1.5 1.4 0 0-.5 1.6-1.5 2.8-.3.5-1 1-1.5 1.1-1.9.3-6-.7-6.1-.8-9.3-1.8-14-6.2-17.6-9a15.3 15.3 0 01-3.8-4.9c-.6-1.5 1.7-2.6 1.7-2.7l-3.8-4.4c0-.4 1.3-2.5 1.2-3-.2-.5 9.4 2.4 9 2.5.1 0-1 3-1 4z"/><path fill="#dfe6ed" fill-rule="nonzero" d="M196.6 37.2l-1.9 1.7c-2 1.8-16.8-4.6-21-9.3-1.3-1.5-2.1-2.7 0-5.6 1.3-1.9.4-5.3.4-5.4 0 0-4-6.3-8.1.7-1.8 3.2-1.8 7.6.8 11.4.7 1 1.9 3 4 4.6 4.3 3.3 17.7 8.6 25.1 6.5 1.1-.3 2-2.4 2-3 .1-.6-1-1.5-1.3-1.6z"/><path fill="#515253" fill-rule="nonzero" d="M172.9 24.8l2.6-3h.1l-2.7 3z"/><path fill="#9bafbd" fill-rule="nonzero" d="M173 24.7l6.3-6.1-.1-3-3.7 4.6-2.6 4.5z"/><path fill="#515253" fill-rule="nonzero" d="M175.5 20.2l2.7-2.9.2-.3-2.7 2.9-.2.3z"/><path fill="#9bafbd" fill-rule="nonzero" d="M172.6 11.6c3.7-3 8.3-3.2 11.2-2 5.3 2.3 12 10.4 16 16.4 3.6 5.6 2.6 7.7 1.4 9.1l-1.7 2.2.3-1.2c.3-.4-.4-4.4-3.1-7.2-5.2-5.2-14-13.6-18.3-14.5a7.5 7.5 0 00-3 0c-1 .1-5.9.3-6.4.9l3.6-3.7z"/><path fill="#dfe6ed" fill-rule="nonzero" d="M168.6 15.6c-.8.8-3.3 4.3-3.3 5.5 0 1 6.4 4.1 7 4 .2 0 .7-.3.8-.5l2.8-3.8a8 8 0 012.6-1.6c.8-.1 3.3.2 5.8 1.7 3.8 2.4 9.6 8.5 13.1 12.6 1.4 1.6 0 2.6 0 2.9.2.6 1.3 1.3 1.4 1.3.5.1 1.6-1.5 2-2 .2-.7 1-1.5-2.5-7.3a38.2 38.2 0 00-16.6-15c-1.1-.4-8.6-2.6-13 2.2z"/><path fill="#b6b7b8" fill-rule="nonzero" d="M172.5 17.2l.3-.3-.5.1-.3.3h.5z"/><path fill="#b6b7b8" fill-rule="nonzero" d="M173.5 18.8l.3-.4c.1 0 .2-.3.1-.5-.1-.4-.6-.9-1-1l-.4.3c.5.2 1 .6 1.1 1v.6z"/><path fill="#788791" fill-rule="nonzero" d="M172.5 17.2c-.4 0-.7.2-.6.7.2.4.7.9 1.1 1 .5 0 .7-.2.6-.6-.1-.5-.6-1-1-1z"/><path fill="#b6b7b8" fill-rule="nonzero" d="M168.6 22.7l.3-.3h-.5l-.3.4h.5z"/><path fill="#b6b7b8" fill-rule="nonzero" d="M169.6 24.2l.3-.3c.1-.1.2-.3.1-.5-.1-.5-.6-1-1-1l-.4.3c.5.1 1 .6 1.1 1v.5z"/><path fill="#788791" fill-rule="nonzero" d="M168.6 22.7c-.4 0-.7.2-.6.6.2.5.7 1 1.1 1 .5.2.7-.1.6-.6-.1-.4-.6-.8-1-1z"/><path fill="#023750" fill-rule="nonzero" d="M132.5 89l-.8-1.2-1-.8-7.6-4.4c-.6-.3-1-.4-1.5-.1l-5.3 3c.3-.2.9-.2 1.5.1l7.6 4.4 1 .8.7 1.3c.3.5.4 1 .4 1.6v8.7c0 .6-.3 1-.7 1.3l5.4-3c.4-.2.6-.7.6-1.4v-8.7l-.3-1.5z"/><path fill="#dfe6ed" fill-rule="nonzero" d="M125.4 90c1.1.7 2 2.3 2 3.6v8.7c0 1.4-.9 2-2 1.2l-7.7-4.3a4.6 4.6 0 01-2-3.7v-8.7c0-1.3.9-1.8 2-1.2l7.7 4.4z"/><path fill="#9bafbd" fill-rule="nonzero" d="M117.6 87.6c-.5-.2-.9 0-.9.5 0 .6.4 1.3.9 1.6.5.2.9 0 .9-.5a2 2 0 00-1-1.6z"/><path fill="#697882" fill-rule="nonzero" d="M118 89.3a2 2 0 01-1-1.5l.1-.3c-.2 0-.4.3-.4.6 0 .6.4 1.3 1 1.6.3.2.6 0 .7-.2a1 1 0 01-.5-.2z"/><path fill="#9bafbd" fill-rule="nonzero" d="M117.6 95.6c-.5-.3-.9 0-.9.5 0 .6.4 1.2.9 1.5.5.3.9 0 .9-.5 0-.6-.4-1.2-1-1.5z"/><path fill="#697882" fill-rule="nonzero" d="M118 97.3a2 2 0 01-1-1.5l.1-.3c-.2 0-.4.3-.4.6 0 .6.4 1.2 1 1.5.3.3.6.1.7-.2a1 1 0 01-.5-.1z"/><path fill="#9bafbd" fill-rule="nonzero" d="M125.4 92c-.5-.3-1-.1-1 .4 0 .6.5 1.3 1 1.6.4.2.8 0 .8-.5 0-.6-.3-1.3-.8-1.6z"/><path fill="#697882" fill-rule="nonzero" d="M125.7 93.6a2 2 0 01-.9-1.5v-.3c-.1 0-.3.3-.3.6 0 .6.4 1.3.9 1.6.4.2.7 0 .8-.2a1 1 0 01-.5-.2z"/><path fill="#9bafbd" fill-rule="nonzero" d="M121 93.3c-.6-.3-1 0-1 .6 0 .7.4 1.6 1 2 .7.3 1.2 0 1.2-.7s-.5-1.5-1.1-1.9z"/><path fill="#697882" fill-rule="nonzero" d="M121.5 95.4a2.4 2.4 0 01-1.1-1.9v-.3c-.3 0-.5.3-.5.7 0 .7.5 1.6 1.1 2 .5.2 1 0 1-.4h-.5z"/><path fill="#9bafbd" fill-rule="nonzero" d="M125.4 99.9c-.5-.3-1 0-1 .5s.5 1.2 1 1.5c.4.3.8 0 .8-.5a2 2 0 00-.8-1.5z"/><path fill="#697882" fill-rule="nonzero" d="M125.7 101.6a2 2 0 01-.9-1.6v-.2c-.1 0-.3.2-.3.6 0 .5.4 1.2.9 1.5.4.3.7.1.8-.2l-.5-.1z"/><path fill="#14171a" fill-rule="nonzero" d="M97.3 52c-.1-.4-.4-.7-.6-1-.3-.3-.6-.6-.9-.7l-6.6-3.8c-.5-.3-1-.4-1.3-.2L83.2 49c.3-.1.8-.1 1.3.2l6.7 3.8.8.7.7 1L93 56v7.6c0 .6-.2 1-.6 1.2l4.7-2.6c.3-.2.5-.6.5-1.2v-7.6c0-.4 0-1-.3-1.4z"/><path fill="#dfe6ed" fill-rule="nonzero" d="M91.2 52.9A4 4 0 0193 56v7.6c0 1.2-.9 1.7-1.9 1L84.5 61a4 4 0 01-1.8-3.2v-7.6c0-1.1.8-1.6 1.8-1l6.7 3.8z"/><path fill="#9bafbd" fill-rule="nonzero" d="M84.5 50.8c-.5-.2-.9 0-.9.4 0 .5.4 1.1.9 1.3.4.3.8.1.8-.4s-.3-1-.8-1.3z"/><path fill="#697882" fill-rule="nonzero" d="M84.8 52.3c-.5-.3-.9-.9-.9-1.4l.1-.2c-.2 0-.4.2-.4.5 0 .5.4 1.1.9 1.3.4.2.7.2.8-.1l-.5-.1z"/><path fill="#9bafbd" fill-rule="nonzero" d="M84.5 57.7c-.5-.2-.9 0-.9.5 0 .4.4 1 .9 1.3.4.2.8 0 .8-.5 0-.4-.3-1-.8-1.3z"/><path fill="#697882" fill-rule="nonzero" d="M84.8 59.2c-.5-.2-.9-.8-.9-1.3l.1-.2c-.2 0-.4.2-.4.5 0 .5.4 1 .9 1.3.4.2.7.1.8-.2l-.5-.1z"/><path fill="#9bafbd" fill-rule="nonzero" d="M91.3 54.6c-.5-.3-1-.1-1 .4s.5 1 1 1.3c.4.2.8 0 .8-.4 0-.5-.4-1.1-.8-1.3z"/><path fill="#697882" fill-rule="nonzero" d="M91.6 56c-.5-.2-1-.8-.9-1.3v-.2c-.1 0-.3.2-.3.5 0 .5.4 1 .9 1.3.3.2.7.1.8-.2h-.5z"/><path fill="#9bafbd" fill-rule="nonzero" d="M87.4 55.8c-.5-.3-1-.1-1 .5s.5 1.3 1 1.6c.5.3 1 .1 1-.5a2 2 0 00-1-1.6z"/><path fill="#697882" fill-rule="nonzero" d="M87.8 57.6a2 2 0 01-1-1.7v-.3c-.2 0-.4.3-.4.7 0 .6.5 1.3 1 1.6.4.3.8.2 1-.2l-.6-.1z"/><path fill="#9bafbd" fill-rule="nonzero" d="M91.3 61.5c-.5-.3-1 0-1 .4 0 .5.5 1 1 1.3.4.3.8 0 .8-.4 0-.5-.4-1-.8-1.3z"/><path fill="#697882" fill-rule="nonzero" d="M91.6 63c-.5-.3-1-.9-.9-1.4v-.2c-.1 0-.3.2-.3.5 0 .5.4 1.1.9 1.3.3.2.7.1.8-.1-.2 0-.4 0-.5-.2z"/><path fill="#eb780b" fill-rule="nonzero" d="M129.4 102.2c-.2.7-.5 1.4-1 1.6-.1 0-.4.1-.8 0-1.7-.9-4.7-10.2-7.2-17.8-2-6.5-4-12.7-5.7-15.5-4.5-7.7-18.4-12.4-19-12.6a.7.7 0 00-.8.4c-.1.4 0 .8.4.9.2 0 14 4.8 18.2 12 1.6 2.6 3.7 9 5.7 15.2 3.5 10.9 5.7 17.6 7.9 18.5l1 .3a2 2 0 001-.3c1.4-.7 1.9-3.2 1.9-3.4v-.2l-1.6 1z"/><defs><linearGradient id="_Linear4" x1="0" x2="1" y1="0" y2="0" gradientTransform="translate(197.9 66) scale(26.0062)" gradientUnits="userSpaceOnUse"><stop offset="0" stop-color="#fff" stop-opacity=".2"/><stop offset="1" stop-color="#0a208f" stop-opacity=".2"/></linearGradient><linearGradient id="_Linear6" x1="0" x2="1" y1="0" y2="0" gradientTransform="translate(224.6 82.4) scale(25.5589)" gradientUnits="userSpaceOnUse"><stop offset="0" stop-color="#fff" stop-opacity=".2"/><stop offset="1" stop-color="#0a208f" stop-opacity=".2"/></linearGradient></defs></svg>
