<svg viewBox="0 0 715 273" xmlns="http://www.w3.org/2000/svg" fill-rule="evenodd" clip-rule="evenodd" stroke-miterlimit="10"><g fill="none" stroke="#41aaaa" stroke-width="1.75"><path d="M25.512 127.559H42.52v-17.008l17.008-17.008M59.528 110.551l17.008-17.008 17.008-17.008h17.008l17.008-17.007M232.441 45.355l14.174 14.173 51.024-.001 17.008 17.008h17.007l17.008-17.008h17.008l17.008 17.008h34.015l17.009-17.008 17.008 17.008 17.008-17.008h34.015l17.008-17.008h17.008l17.008 17.008 17.008-17.008M487.559 90.708l14.174-14.173h34.015M589.606 62.362l14.174 14.173h17.008l34.016 34.016h34.016M671.812 144.567l-17.008 17.007h-17.008M606.614 127.559h14.174l14.173 14.173M688.82 178.582h-17.008l-48.19 48.189M484.725 195.591h34.016l17.007 17.008h17.008M481.889 215.433l-14.172 14.174-17.008-17.008h-34.016l-17.008-17.008h-14.174M175.748 229.607H127.56l-17.008 17.008M90.709 212.599H76.536l-17.008-17.008H42.52l-17.008-17.009M76.535 161.575h17.008l17.008 17.008h17.008l14.173 14.174M195.591 127.559h17.008M127.559 110.551h17.008l17.008-17.008h14.172M178.583 195.591h-31.181M280.63 195.591l-51.023 51.023-17.008-17.007-17.008 17.007-14.174-14.173M113.386 42.519h14.173l17.008 17.008 17.008-17.008h34.016l17.008-17.008 14.173 14.174M640.63 144.567h14.175M617.953 229.607H603.78M487.559 215.433l31.182 31.182M379.843 195.591h-31.181l-34.015 34.016-17.008-17.008"/></g><g fill="#41aaaa"><path d="M41.102 58.109h2.836v2.836h-2.836zM24.094 58.109h2.836v2.836h-2.836zM7.086 92.125h2.836v2.836H7.086zM24.094 92.125h2.836v2.836h-2.836zM58.11 126.141h2.836v2.836H58.11zM92.125 126.141h2.836v2.836h-2.836zM41.102 143.148h2.836v2.836h-2.836zM75.118 177.164h2.836V180h-2.836zM92.125 194.173h2.836v2.836h-2.836zM109.134 211.181h2.836v2.836h-2.836zM109.134 228.187h2.836v2.836h-2.836zM92.125 245.196h2.836v2.836h-2.836zM75.118 228.188h2.836v2.836h-2.836zM41.102 160.156h2.836v2.836h-2.836zM24.094 194.172h2.836v2.836h-2.836zM7.086 160.156h2.836v2.836H7.086zM109.133 92.125h2.836v2.836h-2.836zM143.149 143.148h2.836v2.836h-2.836zM143.149 41.101h2.836v2.836h-2.836zM160.157 24.093h2.836v2.836h-2.836zM194.173 24.093h2.836v2.836h-2.836zM228.188 75.117h2.836v2.836h-2.836zM262.205 41.101h2.836v2.836h-2.836zM313.228 58.109h2.836v2.836h-2.836zM347.244 24.093h2.836v2.836h-2.836zM364.252 24.093h2.836v2.836h-2.836zM483.307 24.093h2.836v2.836h-2.836zM500.315 41.102h2.836v2.836h-2.836zM517.323 58.109h2.836v2.836h-2.836zM534.33 109.133h2.836v2.836h-2.836zM500.314 143.148h2.836v2.836h-2.836zM500.314 177.164h2.836V180h-2.836zM517.322 143.148h2.836v2.836h-2.836zM551.339 126.141h2.836v2.836h-2.836zM551.339 160.156h2.836v2.836h-2.836zM517.323 24.093h2.836v2.836h-2.836zM534.329 24.093h2.836v2.836h-2.836zM381.26 92.125h2.836v2.836h-2.836zM313.228 92.125h2.836v2.836h-2.836zM245.197 24.093h2.836v2.836h-2.836zM245.197 41.101h2.836v2.836h-2.836zM228.188 92.125h2.836v2.836h-2.836zM211.181 109.133h2.836v2.836h-2.836zM602.361 92.125h2.836v2.836h-2.836zM619.37 109.133h2.836v2.836h-2.836zM653.387 75.117h2.836v2.836h-2.836zM670.395 58.109h2.836v2.836h-2.836zM704.409 75.117h2.836v2.836h-2.836zM704.409 109.133h2.836v2.836h-2.836zM653.387 92.125h2.836v2.836h-2.836zM551.339 194.173h2.836v2.836h-2.836zM500.315 245.196h2.836v2.836h-2.836zM466.3 211.181h2.836v2.836H466.3zM449.292 228.188h2.836v2.836h-2.836zM415.275 228.188h2.836v2.836h-2.836zM364.252 245.195h2.836v2.836h-2.836zM262.204 245.195h2.836v2.836h-2.836zM211.181 211.18h2.836v2.836h-2.836zM160.157 262.204h2.836v2.836h-2.836zM160.157 245.195h2.836v2.836h-2.836zM211.181 177.164h2.836V180h-2.836zM177.165 211.18h2.836v2.836h-2.836zM143.149 211.18h2.836v2.836h-2.836zM194.173 160.156h2.836v2.836h-2.836zM211.181 143.149h2.836v2.835h-2.836zM585.354 194.173h2.836v2.836h-2.836zM602.362 211.181h2.836v2.836h-2.836zM585.354 228.188h2.836v2.836h-2.836zM568.347 245.196h2.836v2.836h-2.836zM551.338 245.196h2.836v2.836h-2.836zM568.347 262.204h2.836v2.836h-2.836zM534.33 245.196h2.836v2.836h-2.836zM602.361 194.173h2.836v2.836h-2.836zM653.386 177.164h2.836V180h-2.836zM653.386 126.141h2.836v2.836h-2.836zM670.394 194.173h2.836v2.836h-2.836zM704.409 194.173h2.836v2.836h-2.836zM534.33 194.173h2.836v2.836h-2.836zM194.173 7.085h2.836v2.836h-2.836zM57.021 74.028h4.961v4.961h-4.961zM40.04 125.078h4.961v4.961H40.04zM23.032 125.078h4.961v4.961h-4.961zM57.047 108.07h4.961v4.961h-4.961zM57.047 91.062h4.961v4.961h-4.961zM74.055 125.078h4.961v4.961h-4.961zM91.063 91.062h4.961v4.961h-4.961zM91.063 108.07h4.961v4.961h-4.961zM125.079 91.062h4.961v4.961h-4.961zM91.063 57.047h4.961v4.961h-4.961zM108.071 57.047h4.961v4.961h-4.961zM125.079 57.047h4.961v4.961h-4.961zM125.078 108.07h4.961v4.961h-4.961zM91.063 142.086h4.961v4.961h-4.961zM125.079 40.039h4.961V45h-4.961zM142.086 74.055h4.961v4.961h-4.961zM159.095 74.055h4.961v4.961h-4.961zM176.103 57.046h4.961v4.961h-4.961zM210.118 23.031h4.961v4.961h-4.961zM193.11 57.046h4.961v4.961h-4.961zM159.095 91.062h4.961v4.961h-4.961zM210.118 40.039h4.961V45h-4.961zM227.126 57.047h4.961v4.961h-4.961zM227.126 23.031h4.961v4.961h-4.961zM176.103 23.031h4.961v4.961h-4.961zM176.103 40.039h4.961V45h-4.961zM244.134 74.055h4.961v4.961h-4.961zM261.142 57.047h4.961v4.961h-4.961zM278.149 57.047h4.961v4.961h-4.961zM295.158 74.055h4.961v4.961h-4.961zM261.142 91.062h4.961v4.961h-4.961zM295.158 57.047h4.961v4.961h-4.961zM312.166 74.055h4.961v4.961h-4.961zM329.174 91.062h4.961v4.961h-4.961zM363.189 57.047h4.961v4.961h-4.961zM380.197 57.047h4.961v4.961h-4.961zM397.205 57.047h4.961v4.961h-4.961zM414.213 57.047h4.961v4.961h-4.961zM397.205 74.054h4.961v4.961h-4.961zM431.221 74.055h4.961v4.961h-4.961zM414.213 91.062h4.961v4.961h-4.961zM431.221 57.047h4.961v4.961h-4.961zM414.213 74.055h4.961v4.961h-4.961zM431.221 91.063h4.961v4.961h-4.961zM448.229 57.047h4.961v4.961h-4.961zM448.229 74.055h4.961v4.961h-4.961zM465.237 57.047h4.961v4.961h-4.961zM482.245 74.055h4.961v4.961h-4.961zM499.253 91.062h4.961v4.961h-4.961zM499.253 57.047h4.961v4.961h-4.961zM516.261 74.055h4.961v4.961h-4.961zM550.276 40.039h4.961V45h-4.961zM584.292 74.055h4.961v4.961h-4.961zM465.237 74.055h4.961v4.961h-4.961zM482.245 57.047h4.961v4.961h-4.961zM499.253 74.055h4.961v4.961h-4.961zM533.269 40.039h4.961V45h-4.961zM550.276 57.047h4.961v4.961h-4.961zM567.284 74.055h4.961v4.961h-4.961zM516.261 108.07h4.961v4.961h-4.961zM567.284 57.047h4.961v4.961h-4.961zM550.276 74.055h4.961v4.961h-4.961zM584.292 91.062h4.961v4.961h-4.961zM601.3 108.07h4.961v4.961H601.3zM618.308 91.062h4.962v4.961h-4.962zM635.316 74.055h4.961v4.961h-4.961zM618.308 57.047h4.962v4.961h-4.962zM567.284 108.07h4.961v4.961h-4.961zM584.292 125.078h4.961v4.961h-4.961zM584.292 142.086h4.961v4.961h-4.961zM601.3 142.087h4.962v4.96H601.3zM601.3 159.094h4.962v4.961H601.3zM618.308 159.094h4.962v4.961h-4.962zM618.308 176.102h4.962v4.961h-4.962zM635.316 176.102h4.961v4.961h-4.961zM635.316 159.094h4.961v4.961h-4.961zM652.324 142.086h4.961v4.961h-4.961zM635.316 125.078h4.961v4.961h-4.961zM652.324 108.07h4.961v4.961h-4.961zM686.339 108.07h4.961v4.961h-4.961zM635.316 91.062h4.961v4.961h-4.961zM652.324 159.094h4.961v4.962h-4.961zM686.339 176.102h4.961v4.961h-4.961zM669.332 176.101h4.961v4.962h-4.961zM635.316 193.109h4.961v4.961h-4.961zM618.308 210.118h4.962v4.961h-4.962zM601.3 227.126h4.961v4.961H601.3zM584.291 261.141h4.961v4.962h-4.961zM533.268 261.141h4.961v4.962h-4.961zM499.253 227.126h4.961v4.961h-4.961zM516.261 210.118h4.961v4.961h-4.961zM499.253 193.11h4.961v4.961h-4.961zM516.26 193.11h4.961v4.961h-4.961zM533.269 210.118h4.961v4.961h-4.961zM550.275 210.118h4.961v4.961h-4.961zM533.269 227.125h4.961v4.962h-4.961zM550.276 227.126h4.961v4.961h-4.961zM567.284 210.118h4.961v4.961h-4.961zM499.252 210.117h4.961v4.961h-4.961zM465.237 227.125h4.961v4.962h-4.961zM448.229 210.117h4.961v4.961h-4.961zM431.222 193.109h4.961v4.961h-4.961zM414.213 210.118h4.961v4.961h-4.961zM397.205 193.11h4.961v4.961h-4.961zM380.197 210.118h4.961v4.961h-4.961zM363.189 193.11h4.961v4.961h-4.961zM346.182 210.118h4.961v4.961h-4.961zM329.174 193.11h4.961v4.961h-4.961zM346.181 193.11h4.962v4.961h-4.962zM329.173 210.117h4.961v4.961h-4.961zM312.166 210.118h4.961v4.961h-4.961zM312.166 227.126h4.961v4.961h-4.961zM295.158 193.11h4.961v4.961h-4.961zM278.15 210.118h4.961v4.961h-4.961zM261.142 193.11h4.961v4.961h-4.961zM244.134 210.118h4.961v4.961h-4.961zM227.126 193.11h4.961v4.961h-4.961zM227.126 227.126h4.961v4.961h-4.961zM210.119 244.134h4.961v4.961h-4.961zM261.142 210.118h4.961v4.961h-4.961zM227.126 244.134h4.961v4.961h-4.961zM193.11 210.118h4.961v4.961h-4.961zM210.119 227.126h4.961v4.961h-4.961zM193.11 244.134h4.961v4.961h-4.961zM227.126 210.118h4.961v4.961h-4.961zM193.11 176.102h4.961v4.961h-4.961zM176.103 193.11h4.961v4.961h-4.961zM159.095 193.11h4.961v4.961h-4.961zM159.095 210.118h4.961v4.961h-4.961zM159.095 227.125h4.961v4.961h-4.961zM142.087 244.134h4.961v4.961h-4.961zM74.055 193.109h4.961v4.961h-4.961zM57.047 176.102h4.961v4.961h-4.961zM40.04 193.11h4.961v4.961H40.04zM23.032 176.102h4.961v4.961h-4.961zM57.047 142.087h4.961v4.96h-4.961zM23.032 159.094h4.961v4.961h-4.961zM125.079 210.117h4.961v4.961h-4.961zM125.079 193.109h4.961v4.961h-4.961zM91.063 227.125h4.961v4.962h-4.961zM74.055 210.118h4.961v4.961h-4.961zM125.079 244.134h4.961v4.961h-4.961zM108.071 244.134h4.961v4.961h-4.961zM295.158 210.118h4.961v4.961h-4.961zM431.221 210.118h4.961v4.961h-4.961zM448.229 193.109h4.961v4.961h-4.961zM397.205 210.117h4.961v4.961h-4.961zM465.236 244.133h4.962v4.961h-4.962zM482.245 193.11h4.961v4.961h-4.961zM482.245 244.134h4.961v4.961h-4.961zM584.292 159.094h4.961v4.961h-4.961zM567.284 176.102h4.961v4.961h-4.961zM533.269 142.087h4.961v4.96h-4.961zM516.261 159.094h4.961v4.961h-4.961zM550.275 142.087h4.961v4.96h-4.961zM516.261 125.078h4.961v4.961h-4.961zM533.268 125.078h4.961v4.961h-4.961zM533.268 176.102h4.961v4.961h-4.961zM567.284 91.062h4.961v4.961h-4.961zM584.292 40.039h4.961V45h-4.961zM516.261 91.062h4.961v4.961h-4.961zM533.269 74.055h4.961v4.961h-4.961zM465.237 91.062h4.961v4.961h-4.961zM346.181 57.047h4.962v4.961h-4.962zM346.181 91.062h4.962v4.961h-4.962zM363.189 91.062h4.961v4.961h-4.961zM261.142 74.055h4.961v4.961h-4.961zM244.134 57.047h4.961v4.961h-4.961zM244.134 91.062h4.961v4.961h-4.961zM193.11 74.055h4.961v4.961h-4.961zM210.118 74.055h4.961v4.961h-4.961zM193.11 91.062h4.961v4.961h-4.961zM176.103 108.07h4.961v4.961h-4.961zM193.11 125.078h4.961v4.961h-4.961zM210.118 125.078h4.961v4.961h-4.961zM159.095 125.078h4.961v4.961h-4.961zM176.103 125.078h4.961v4.961h-4.961zM176.103 142.087h4.961v4.96h-4.961zM176.103 159.094h4.961v4.961h-4.961zM142.086 159.094h4.961v4.961h-4.961zM108.071 125.078h4.961v4.961h-4.961zM125.079 142.086h4.961v4.961h-4.961zM108.071 142.086h4.961v4.961h-4.961zM108.071 159.094h4.961v4.961h-4.961zM193.11 142.087h4.961v4.96h-4.961zM210.118 261.141h4.961v4.962h-4.961zM74.055 91.062h4.961v4.961h-4.961zM140.29 55.249h8.504v8.504h-8.504zM106.299 174.33h8.504v8.504h-8.504zM55.276 191.338h8.504v8.504h-8.504zM91.063 159.094h4.961v4.961h-4.961zM74.055 159.094h4.961v4.961h-4.961zM38.268 106.299h8.504v8.504h-8.504zM123.307 225.353h8.504v8.504h-8.504zM140.315 225.353h8.504v8.504h-8.504zM157.323 174.33h8.504v8.504h-8.504zM276.411 191.338h8.504v8.504h-8.504zM463.465 191.338h8.504v8.504h-8.504zM514.489 242.362h8.504v8.504h-8.504zM599.527 174.33h8.505v8.504h-8.505zM548.504 174.33h8.504v8.504h-8.504zM582.52 242.361h8.504v8.504h-8.504zM667.56 140.314h8.504v8.504h-8.504zM616.535 123.307h8.505v8.504h-8.505zM565.512 123.307h8.504v8.504h-8.504zM174.331 72.283h8.504v8.504h-8.504zM123.307 72.283h8.504v8.504h-8.504zM157.323 38.267h8.504v8.504h-8.504zM191.339 38.267h8.504v8.504h-8.504zM140.315 106.299h8.504v8.504h-8.504zM157.323 140.314h8.504v8.504h-8.504zM327.402 72.283h8.504v8.504h-8.504zM378.426 72.283h8.504v8.504h-8.504zM514.488 38.267h8.504v8.504h-8.504zM565.512 38.267h8.504v8.504h-8.504zM599.528 72.283h8.504v8.504h-8.504zM616.535 72.283h8.505v8.504h-8.505zM497.48 123.307h8.504v8.504h-8.504zM108.071 74.055h4.961v4.961h-4.961zM91.063 74.055h4.961v4.961h-4.961z"/><path d="M453.163 44.974h-4.961v-4.961h4.961v4.961zm-6.731 1.771h8.504v-8.504h-8.504v8.504zM113.031 45h-4.961v-4.961h4.961V45zm-6.732 1.771h8.504v-8.504h-8.504v8.504zM79.016 79.016h-4.961v-4.961h4.961v4.961zm-6.732 1.771h8.504v-8.504h-8.504v8.504zM130.04 130.04h-4.961v-4.961h4.961v4.961zm-6.732 1.771h8.504v-8.504h-8.504v8.504zM181.063 96.024h-4.961v-4.961h4.961v4.961zm-6.732 1.771h8.504v-8.504h-8.504v8.504zM96.023 215.079h-4.961v-4.961h4.961v4.961zm-6.731 1.771h8.504v-8.504h-8.504v8.504zM147.047 198.071h-4.961v-4.961h4.961v4.961zm-6.732 1.771h8.504v-8.504h-8.504v8.504zM181.063 232.087h-4.961v-4.961h4.961v4.961zm-6.732 1.771h8.504v-8.504h-8.504v8.504zM215.079 198.071h-4.961v-4.961h4.961v4.961zm-6.732 1.772h8.504v-8.505h-8.504v8.505zM385.157 198.071h-4.961v-4.961h4.961v4.961zm-6.731 1.772h8.504v-8.505h-8.504v8.505zM487.205 215.079h-4.962v-4.961h4.962v4.961zm-6.732 1.772h8.504v-8.504h-8.504v8.504zM589.252 215.079h-4.961v-4.961h4.961v4.961zm-6.732 1.772h8.504v-8.504h-8.504v8.504zM606.26 130.04h-4.961v-4.961h4.961v4.961zm-6.733 1.771h8.504v-8.504h-8.504v8.504zM640.275 147.048h-4.961v-4.961h4.961v4.961zm-6.731 1.771h8.504v-8.504h-8.504v8.504zM623.268 232.088h-4.961v-4.961h4.961v4.961zm-6.733 1.77h8.505v-8.504h-8.505v8.504zM589.252 62.008h-4.961v-4.961h4.961v4.961zm-6.732 1.771h8.504v-8.504h-8.504v8.504zM555.236 96.023h-4.961v-4.961h4.961v4.961zm-6.731 1.771h8.504V89.29h-8.504v8.504zM487.205 96.023h-4.962v-4.961h4.962v4.961zm-6.732 1.771h8.504V89.29h-8.504v8.504zM283.11 79.016h-4.961v-4.961h4.961v4.961zm-6.732 1.771h8.504v-8.504h-8.504v8.504zM232.086 45.001h-4.961V40.04h4.961v4.961zm-6.732 1.771h8.504v-8.504h-8.504v8.504z" fill-rule="nonzero"/><path d="M125.079 176.102h4.961v4.961h-4.961z"/></g><g fill="#41aaaa" fill-rule="nonzero"><path d="M243.78 124.555h7.253l6.388 18.091c.575 1.772.989 3.173 1.524 4.987.495-1.856.948-3.215 1.525-4.987l6.305-18.091h7.13v28.517h-4.864v-23.365c-.7 2.513-.99 3.377-1.936 6.222l-5.934 17.143h-4.739l-5.893-16.772c-1.03-2.967-1.03-3.008-2.103-6.593v23.365h-4.656v-28.517zM286.016 125.255c0 1.731-1.237 3.008-2.967 3.008s-2.967-1.237-2.967-3.05c0-1.689 1.277-2.966 2.967-2.966 1.73 0 2.967 1.277 2.967 3.008m-5.357 6.799h4.822v21.017h-4.822v-21.017zM292.197 139.432c-.042-3.833-.042-4.204-.207-7.377h4.534l.165 3.091c2.555-2.637 4.492-3.545 7.418-3.545 2.678 0 4.697 1.032 5.728 2.968.658 1.237.947 2.843.947 5.852v12.651h-4.821v-12.404c0-1.854-.124-2.761-.412-3.544-.494-1.154-1.566-1.813-3.009-1.813-1.895 0-3.832 1.236-5.522 3.543v14.218h-4.821v-13.64zM334.927 122.947v22.749c0 3.296.041 5.397.206 7.376h-4.656l-.165-3.009c-1.814 2.514-3.544 3.461-6.347 3.461-2.76 0-4.78-1.03-6.346-3.254-1.36-1.979-2.102-4.658-2.102-7.748 0-6.594 3.338-10.921 8.448-10.921 2.515 0 4.493.989 6.141 3.091v-11.745h4.821zm-4.821 15.866c-1.278-2.267-3.009-3.502-4.864-3.502-2.884 0-4.738 2.76-4.738 7.169 0 4.451 1.812 7.336 4.615 7.336 1.896 0 3.462-1.113 4.987-3.585v-7.418zM341.23 147.714c3.421 1.319 5.399 1.772 7.666 1.772 3.049 0 4.945-1.567 4.945-4.12 0-2.102-.784-2.803-5.523-4.823-3.378-1.441-4.367-1.936-5.521-2.843-1.567-1.278-2.349-3.008-2.349-5.234 0-5.151 3.626-8.365 9.518-8.365 2.515 0 4.781.411 7.996 1.442l-.989 4.245c-2.802-1.196-4.78-1.649-6.8-1.649-2.76 0-4.534 1.403-4.534 3.586 0 1.896 1.03 2.801 5.152 4.491 3.42 1.402 4.78 2.102 5.975 3.092 1.526 1.318 2.35 3.255 2.35 5.687 0 5.398-3.71 8.529-10.055 8.529-3.01 0-5.481-.411-8.49-1.442l.659-4.368zM363.687 140.461c0-4.245-.041-6.058-.206-8.406h4.615l.165 2.884c1.938-2.39 3.751-3.338 6.389-3.338 5.067 0 8.447 4.327 8.447 10.921 0 3.378-.906 6.221-2.513 8.241-1.526 1.895-3.38 2.761-5.976 2.761-2.638 0-4.451-.906-6.1-3.132v11.54h-4.821v-21.471zm4.821 5.77c1.526 2.471 3.05 3.585 4.946 3.585 2.801 0 4.657-2.886 4.657-7.336 0-4.409-1.856-7.17-4.739-7.17-1.854 0-3.421 1.112-4.864 3.462v7.459zM387.998 122.947h4.822v11.91c1.937-2.143 4.327-3.256 7.129-3.256 2.678 0 4.739 1.031 5.77 2.967.66 1.237.906 2.844.906 5.852v12.652h-4.821v-12.405c0-1.854-.124-2.761-.412-3.543-.453-1.155-1.567-1.813-3.009-1.813-1.895 0-3.873 1.235-5.563 3.543v14.218h-4.822v-30.125zM416.513 144.088c.37 3.957 2.308 5.81 6.058 5.81 2.101 0 4.121-.659 6.263-2.018l1.69 3.543c-2.513 1.442-5.028 2.102-8.077 2.102-7.048 0-11.004-3.915-11.004-10.921 0-6.84 3.833-11.002 10.056-11.002 4.368 0 7.377 1.812 8.656 5.151.74 1.936.988 3.709 1.029 7.335h-14.671zm9.726-3.379c-.083-3.544-1.814-5.563-4.74-5.563-2.925 0-4.822 2.101-4.986 5.563h9.726zM436.333 139.967c0-2.513-.042-3.502-.124-6.964l-.041-.948h4.531l.124 3.956c1.238-2.885 3.092-4.285 5.565-4.285.66 0 1.07.04 1.853.247l-.288 4.244c-.741-.124-1.071-.165-1.649-.165-2.389 0-4.285 1.732-5.191 4.821v12.199h-4.78v-13.105zM455.163 144.088c.37 3.957 2.308 5.81 6.059 5.81 2.1 0 4.12-.659 6.263-2.018l1.689 3.543c-2.513 1.442-5.027 2.102-8.076 2.102-7.048 0-11.004-3.915-11.004-10.921 0-6.84 3.833-11.002 10.055-11.002 4.369 0 7.376 1.812 8.655 5.151.741 1.936.99 3.709 1.03 7.335h-14.671zm9.726-3.379c-.082-3.544-1.814-5.563-4.74-5.563-2.925 0-4.821 2.101-4.986 5.563h9.726z"/></g></svg>